<?xml version="1.0" standalone="no"?>
<!DOCTYPE svg PUBLIC "-//W3C//DTD SVG 20010904//EN"
 "http://www.w3.org/TR/2001/REC-SVG-20010904/DTD/svg10.dtd">
<svg version="1.0" xmlns="http://www.w3.org/2000/svg"
 width="32px" height="48px" viewBox="0 0 1200.000000 1200.000000"
 preserveAspectRatio="xMidYMid meet">

<g transform="translate(0.000000,1200.000000) scale(0.100000,-0.100000)"
fill="#654321" stroke="none">
<path d="M5612 11199 c-696 -46 -1321 -289 -1867 -725 -141 -112 -455 -427
-569 -569 -327 -411 -542 -852 -651 -1340 -130 -580 -107 -1288 56 -1779 28
-82 244 -550 698 -1515 363 -768 927 -1965 1255 -2661 354 -751 615 -1292 642
-1333 170 -249 510 -394 810 -344 131 21 229 55 328 114 103 61 230 186 284
278 68 117 2502 5302 2544 5420 158 443 200 1075 107 1633 -118 715 -447 1328
-1000 1868 -716 697 -1614 1022 -2637 953z m611 -1738 c153 -33 251 -67 392
-136 473 -230 824 -674 930 -1176 36 -168 45 -450 21 -617 -56 -380 -209 -685
-481 -958 -251 -252 -529 -404 -870 -476 -97 -20 -138 -23 -340 -23 -182 0
-251 4 -330 19 -676 126 -1235 685 -1361 1361 -27 143 -27 507 0 650 42 226
148 474 284 665 86 122 290 326 412 412 213 152 454 250 719 293 132 22 495
13 624 -14z"/>
</g>
</svg>
