<?xml version="1.0" encoding="UTF-8" standalone="no"?>
<!DOCTYPE svg PUBLIC "-//W3C//DTD SVG 20010904//EN"
 "http://www.w3.org/TR/2001/REC-SVG-20010904/DTD/svg10.dtd">
<svg version="1.0" xmlns="http://www.w3.org/2000/svg"
 width="32px" height="32px" viewBox="0 0 474.000000 472.000000"
 preserveAspectRatio="xMidYMid meet">
  <g transform="translate(0.000000,472.000000) scale(0.100000,-0.100000)" fill="#FFFFFF" stroke="none">
    <path
       d="M 900,4704 C 892,4697 698,4544 470,4365 242,4185 43,4026 27,4010 5,3986 0,3972 0,3930 c 0,-42 5,-56 27,-79 38,-39 855,-678 890,-696 24,-13 127,-15 676,-15 h 647 v -115 -115 h -712 c -696,0 -713,0 -754,-20 -78,-38 -74,-1 -74,-769 0,-751 -2,-732 62,-771 32,-19 48,-20 756,-20 h 722 V 720 c 0,-660 -1,-651 54,-697 20,-17 39,-23 76,-23 43,0 55,4 81,31 17,17 34,42 40,56 5,14 9,278 9,633 v 610 l 663,2 662,3 430,339 c 237,186 442,351 458,367 36,38 39,117 5,152 -21,20 -396,317 -753,595 l -150,117 -657,3 -658,2 v 115 115 h 718 c 801,0 765,-3 804,70 17,33 18,75 18,718 0,738 1,723 -54,770 l -26,22 -1523,-1 c -1285,-1 -1524,-3 -1537,-15 z m 2882,-256 c 2,-13 2,-254 0,-535 l -2,-513 H 2392 1004 l -84,68 c -92,74 -326,259 -482,381 -53,42 -97,78 -97,81 0,3 152,125 337,273 l 336,267 h 1383 1382 z m 65,-1891 c 65,-51 215,-169 333,-261 118,-93 215,-172 215,-176 0,-4 -148,-125 -330,-268 l -330,-261 -1387,-1 H 960 v 530 530 h 1384 1385 z"
       id="path2" />
  </g>
</svg>
