<?xml version="1.0" standalone="no"?>
<!DOCTYPE svg PUBLIC "-//W3C//DTD SVG 20010904//EN"
 "http://www.w3.org/TR/2001/REC-SVG-20010904/DTD/svg10.dtd">
<svg version="1.0" xmlns="http://www.w3.org/2000/svg"
 width="32px" height="48px" viewBox="0 0 474.000000 472.000000"
 preserveAspectRatio="xMidYMid meet">

<g transform="translate(0.000000,472.000000) scale(0.100000,-0.100000)"
fill="#008000" stroke="none">
<path d="M900 4704 c-8 -7 -202 -160 -430 -339 -228 -180 -427 -339 -443 -355
-22 -24 -27 -38 -27 -80 0 -42 5 -56 27 -79 38 -39 855 -678 890 -696 24 -13
127 -15 676 -15 l647 0 0 -115 0 -115 -712 0 c-696 0 -713 0 -754 -20 -78 -38
-74 -1 -74 -769 0 -751 -2 -732 62 -771 32 -19 48 -20 756 -20 l722 0 0 -610
c0 -660 -1 -651 54 -697 20 -17 39 -23 76 -23 43 0 55 4 81 31 17 17 34 42 40
56 5 14 9 278 9 633 l0 610 663 2 662 3 430 339 c237 186 442 351 458 367 36
38 39 117 5 152 -21 20 -396 317 -753 595 l-150 117 -657 3 -658 2 0 115 0
115 718 0 c801 0 765 -3 804 70 17 33 18 75 18 718 0 738 1 723 -54 770 l-26
22 -1523 -1 c-1285 -1 -1524 -3 -1537 -15z m2882 -256 c2 -13 2 -254 0 -535
l-2 -513 -1388 0 -1388 0 -84 68 c-92 74 -326 259 -482 381 -53 42 -97 78 -97
81 0 3 152 125 337 273 l336 267 1383 0 1382 0 3 -22z m65 -1891 c65 -51 215
-169 333 -261 118 -93 215 -172 215 -176 0 -4 -148 -125 -330 -268 l-330 -261
-1387 -1 -1388 0 0 530 0 530 1384 0 1385 0 118 -93z"/>
</g>
</svg>
