<svg id="svg" xmlns="http://www.w3.org/2000/svg" xmlns:xlink="http://www.w3.org/1999/xlink" width="400" height="400" viewBox="0, 0, 400,400"><g id="svgg"><path id="path0" d="M300.391 12.504 C 294.523 13.318,286.530 16.197,280.671 19.607 C 275.834 22.423,58.825 238.125,56.590 242.339 C 55.976 243.497,45.617 274.174,33.569 310.512 C 9.961 381.714,10.652 379.096,14.270 383.630 C 19.144 389.736,17.536 390.112,91.406 365.542 L 157.422 343.584 268.037 232.925 C 390.724 110.189,382.290 119.338,385.959 104.993 C 391.948 81.576,386.806 69.609,358.607 41.351 C 331.904 14.591,321.721 9.545,300.391 12.504 M320.703 36.571 C 327.595 39.812,359.282 70.878,362.689 77.734 C 369.653 91.750,366.747 104.087,353.351 117.377 L 346.466 124.207 310.928 88.621 L 275.391 53.036 282.634 46.057 C 295.964 33.212,307.464 30.346,320.703 36.571 M295.901 104.104 L 331.248 139.458 241.797 228.906 L 152.346 318.355 116.797 282.812 L 81.248 247.270 170.506 158.010 C 219.597 108.917,259.941 68.750,260.158 68.750 C 260.376 68.750,276.460 84.659,295.901 104.104 M86.136 344.619 C 60.890 353.047,40.153 359.880,40.054 359.804 C 39.955 359.728,46.766 338.991,55.191 313.723 L 70.507 267.780 101.272 298.538 L 132.037 329.295 86.136 344.619 " stroke="none" fill="#008000" fill-rule="evenodd"></path></g></svg>
