<?xml version="1.0" standalone="no"?>
<!DOCTYPE svg PUBLIC "-//W3C//DTD SVG 20010904//EN"
 "http://www.w3.org/TR/2001/REC-SVG-20010904/DTD/svg10.dtd">
<svg version="1.0" xmlns="http://www.w3.org/2000/svg"
 width="512.000000pt" height="512.000000pt" viewBox="0 0 512.000000 512.000000"
 preserveAspectRatio="xMidYMid meet">

<g transform="translate(0.000000,512.000000) scale(0.100000,-0.100000)"
fill="#4D4D4D" stroke="none">
<path d="M2135 5102 c-69 -24 -117 -63 -149 -123 -24 -42 -35 -94 -72 -327
-45 -285 -50 -302 -94 -302 -9 0 -113 72 -231 161 -240 180 -249 186 -321 199
-64 12 -155 -8 -205 -46 -18 -13 -143 -131 -279 -262 -280 -268 -294 -288
-294 -404 0 -37 5 -80 12 -95 7 -15 72 -126 145 -247 74 -120 138 -226 143
-236 7 -14 2 -37 -21 -92 -17 -40 -32 -74 -33 -75 -1 -1 -114 -20 -251 -42
-138 -22 -268 -46 -290 -51 -61 -17 -126 -70 -160 -131 l-30 -54 -3 -373 c-3
-421 0 -445 64 -520 55 -65 105 -84 374 -142 135 -29 251 -56 259 -60 7 -4 31
-50 53 -103 l39 -97 -140 -234 c-154 -256 -169 -293 -151 -387 6 -29 19 -67
31 -85 18 -29 264 -271 475 -466 101 -94 121 -103 229 -103 65 0 98 5 120 17
17 9 116 82 220 162 105 80 195 145 202 146 6 0 31 -9 56 -19 l44 -19 37 -238
c44 -277 66 -340 139 -394 77 -57 105 -60 492 -60 393 0 421 4 492 65 70 59
80 86 142 365 l58 262 59 24 c32 13 62 24 67 24 4 0 102 -64 219 -141 116 -78
231 -148 256 -156 58 -20 154 -13 210 16 24 12 154 129 301 271 280 271 302
298 309 400 6 82 -18 130 -169 350 -74 107 -139 201 -143 208 -7 12 45 163 64
185 3 4 126 34 273 66 286 64 312 74 372 144 62 72 65 98 65 498 0 335 -1 362
-20 412 -23 62 -73 118 -130 147 -26 13 -135 36 -312 65 -150 25 -273 47 -274
48 -14 17 -64 152 -60 163 3 7 68 106 145 219 77 113 148 220 157 238 10 17
19 64 22 102 7 118 -16 150 -318 435 -148 139 -273 249 -298 261 -58 29 -148
36 -205 16 -25 -8 -152 -88 -282 -176 -193 -131 -241 -160 -261 -155 -14 4
-28 14 -33 23 -5 9 -34 135 -66 281 -32 146 -66 284 -77 308 -11 23 -41 60
-66 82 -75 67 -98 70 -501 70 -311 -1 -362 -3 -406 -18z m699 -319 c6 -21 111
-512 120 -566 9 -48 57 -103 104 -118 20 -6 84 -29 141 -51 116 -45 171 -47
220 -9 42 33 481 331 487 331 4 0 92 -82 198 -182 105 -100 197 -187 205 -194
11 -10 -16 -56 -160 -268 -204 -303 -202 -296 -133 -431 23 -44 58 -123 79
-175 40 -103 71 -144 119 -159 17 -5 148 -28 291 -51 143 -23 268 -43 278 -46
16 -5 17 -25 15 -292 l-3 -286 -280 -61 c-154 -34 -290 -67 -301 -73 -40 -22
-71 -69 -103 -162 -17 -50 -50 -130 -71 -177 -53 -115 -54 -160 -3 -234 20
-30 94 -138 165 -241 l128 -186 -118 -114 c-236 -228 -288 -278 -295 -278 -4
0 -115 72 -247 160 -284 189 -270 185 -426 116 -55 -24 -124 -51 -154 -61 -68
-22 -106 -48 -125 -85 -8 -16 -40 -143 -70 -282 -31 -139 -58 -261 -61 -271
-5 -16 -26 -17 -292 -15 l-286 3 -43 265 c-24 152 -50 279 -60 298 -21 42 -53
64 -123 87 -30 10 -93 35 -140 55 -104 46 -136 53 -177 41 -18 -5 -124 -79
-235 -164 -112 -84 -213 -160 -225 -167 -20 -13 -33 -2 -225 181 -111 107
-203 196 -203 199 0 3 67 116 149 252 179 298 177 291 113 428 -25 52 -59 134
-76 182 -40 114 -54 141 -87 163 -15 9 -147 44 -293 76 -146 32 -276 61 -289
64 l-22 5 2 288 3 287 282 46 c155 25 296 52 313 59 41 17 70 59 105 150 15
41 48 114 72 162 68 138 71 128 -113 428 -86 140 -158 261 -161 268 -7 16 -2
21 217 232 l186 178 239 -180 c132 -100 257 -187 278 -195 27 -9 48 -11 70 -4
73 21 271 102 288 117 44 39 65 116 108 384 24 146 44 271 46 278 3 9 70 12
289 12 262 0 285 -1 290 -17z"/>
<path d="M2465 3464 c-148 -24 -307 -84 -412 -155 -69 -47 -188 -164 -239
-236 -324 -452 -174 -1097 318 -1363 160 -86 297 -116 495 -107 249 10 455
105 629 290 114 121 185 249 232 419 27 100 24 357 -6 463 -93 329 -351 581
-681 666 -75 20 -273 33 -336 23z m260 -329 c211 -53 387 -225 451 -440 28
-94 24 -248 -9 -351 -63 -191 -220 -346 -412 -407 -54 -17 -94 -21 -180 -21
-97 0 -120 4 -195 30 -162 57 -288 168 -359 317 -51 105 -65 180 -59 310 6
116 32 197 94 294 79 124 231 233 371 267 78 19 225 20 298 1z"/>
</g>
</svg>
