<?xml version="1.0" standalone="no"?>
<!DOCTYPE svg PUBLIC "-//W3C//DTD SVG 20010904//EN"
 "http://www.w3.org/TR/2001/REC-SVG-20010904/DTD/svg10.dtd">
<svg version="1.0" xmlns="http://www.w3.org/2000/svg"
 width="32px" height="48px" viewBox="0 0 980.000000 980.000000"
 preserveAspectRatio="xMidYMid meet">

<g transform="translate(0.000000,980.000000) scale(0.100000,-0.100000)"
fill="#000000" stroke="none">
<path d="M4881 9768 c-4 -13 -306 -858 -671 -1878 -364 -1020 -666 -1859 -670
-1864 -8 -8 -758 -18 -2592 -32 -516 -4 -938 -10 -937 -13 0 -3 648 -544 1440
-1201 792 -657 1444 -1199 1449 -1205 6 -7 -176 -645 -510 -1785 -286 -975
-518 -1775 -516 -1777 2 -2 678 478 1502 1068 825 590 1507 1073 1516 1073 9
1 693 -482 1518 -1073 826 -590 1503 -1072 1505 -1070 1 2 -231 795 -517 1763
-285 967 -517 1764 -515 1771 3 6 657 555 1453 1219 797 665 1451 1212 1452
1217 2 5 -773 9 -1790 9 l-1793 0 -654 1900 c-360 1045 -656 1900 -658 1900
-2 0 -7 -10 -12 -22z"/>
</g>
</svg>
