<?xml version="1.0" standalone="no"?>
<!DOCTYPE svg PUBLIC "-//W3C//DTD SVG 20010904//EN"
 "http://www.w3.org/TR/2001/REC-SVG-20010904/DTD/svg10.dtd">
<svg version="1.0" xmlns="http://www.w3.org/2000/svg"
 width="474.000000pt" height="474.000000pt" viewBox="0 0 474.000000 474.000000"
 preserveAspectRatio="xMidYMid meet">

<g transform="translate(0.000000,474.000000) scale(0.100000,-0.100000)"
fill="#ff0000" stroke="none">
<path d="M1789 4421 c-124 -40 -231 -143 -280 -269 -17 -44 -23 -85 -27 -179
l-4 -123 -444 0 -445 0 3 -147 3 -147 145 0 145 -1 5 -1310 c5 -1225 6 -1313
23 -1355 58 -145 172 -245 324 -285 86 -23 1877 -22 1972 0 144 34 263 138
319 279 15 37 17 160 22 1356 4 1159 7 1315 20 1316 8 1 75 2 148 2 l132 2 0
145 0 145 -445 0 -445 0 0 109 c0 217 -84 362 -258 444 l-67 32 -395 2 c-358
2 -400 1 -451 -16z m807 -297 c60 -44 69 -67 69 -172 l0 -97 -442 -3 -443 -2
0 98 c0 86 3 103 23 133 46 69 52 70 429 67 322 -3 338 -4 364 -24z m618 -570
l46 -7 0 -1271 c0 -1218 -1 -1273 -19 -1306 -10 -19 -30 -44 -45 -55 -27 -20
-40 -20 -965 -23 l-938 -2 -33 22 c-18 13 -43 36 -54 51 l-21 28 -3 1277 c-2
1024 0 1277 10 1284 15 9 1953 11 2022 2z"/>
<path d="M1480 2226 c0 -949 1 -1035 16 -1038 9 -2 77 -2 150 0 l134 3 0 1035
0 1034 -150 0 -150 0 0 -1034z"/>
<path d="M2070 2226 l0 -1035 140 -3 c77 -2 145 -1 150 0 7 2 10 369 10 1038
l0 1034 -150 0 -150 0 0 -1034z"/>
<path d="M2672 2223 l3 -1037 23 1 c12 0 76 1 142 2 l120 1 0 1035 0 1035
-145 0 -145 0 2 -1037z"/>
</g>
</svg>
