<svg width="43.902pt" height="20.57pt" version="1.0" viewBox="0 0 43.902 20.57" xmlns="http://www.w3.org/2000/svg">
 <path d="m22.105 13.918 5.8254 4.907 15.572-3.8703-2.3526-10.436-22.517-2.9028z" fill="#e45e52" fill-opacity=".1" stroke="#e45e52" stroke-width=".67133px"/>
 <circle class="cls-2" cx="9.4738" cy="10.126" r="9.375" fill="#e45e52" stroke-width=".16053"/>
 <g transform="matrix(.16053 0 0 .16053 .09877 .75095)" fill="none" stroke="#000" stroke-miterlimit="10" stroke-width="3px">
  <polyline class="cls-1" points="26.7 90.05 26.7 34.65 45 20.75 63.9 34.65 63.9 90.05"/>
  <line class="cls-1" x1="27.7" x2="62.9" y1="59.25" y2="59.25"/>
  <line class="cls-1" x1="37.4" x2="37.4" y1="90.05" y2="59.95"/>
  <line class="cls-1" x1="26.7" x2="37.1" y1="70.35" y2="70.35"/>
  <line class="cls-1" x1="27.1" x2="37.7" y1="81.85" y2="81.85"/>
  <path class="cls-1" d="m36.8 51.65v-5c0-5.1 3.9-9.2 8.6-9.2 4.8 0 8.6 4.1 8.6 9.2v12"/>
  <path class="cls-1" d="m64.6 59.35s6.4 0 12.2 16.2 14.5 13.4 14.5 13.4"/>
  <path class="cls-1" d="m71.4 52.25s6.4 0 12.2 16.2 14.5 13.4 14.5 13.4"/>
 </g>
</svg>
