<svg width="13.713pt" height="20.57pt" version="1.0" viewBox="0 0 13.713 20.57" xmlns="http://www.w3.org/2000/svg">
 <g >
  <g transform="matrix(.002 0 0 -.002 -4.8823 22.416)" fill="#d9762b">
   <path transform="matrix(375 0 0 -375 2441.1 11208)" d="m9.4629 0.0039062c-0.33029-0.0097187-0.66681-0.0034687-1.0078 0.019531-1.856 0.12267-3.5225 0.77093-4.9785 1.9336-0.376 0.29867-1.2136 1.1389-1.5176 1.5176-0.872 1.096-1.4437 2.2729-1.7344 3.5742-0.34667 1.5467-0.28623 3.4348 0.14844 4.7441 0.074667 0.21867 0.65066 1.4657 1.8613 4.0391 0.968 2.048 2.471 5.2397 3.3457 7.0957 0.944 2.0027 1.6409 3.4454 1.7129 3.5547 0.45333 0.664 1.3602 1.0513 2.1602 0.91797 0.34933-0.056 0.611-0.14736 0.875-0.30469 0.27467-0.16267 0.61381-0.4949 0.75781-0.74023 0.18133-0.312 6.6712-14.138 6.7832-14.453 0.42133-1.1813 0.53316-2.8675 0.28516-4.3555-0.31467-1.9067-1.1913-3.5405-2.666-4.9805-1.6707-1.6263-3.7134-2.4945-6.0254-2.5625zm-0.2832 4.9863a3.4344 3.4965 0 0 1 3.4336 3.4961 3.4344 3.4965 0 0 1-3.4336 3.4961 3.4344 3.4965 0 0 1-3.4355-3.4961 3.4344 3.4965 0 0 1 3.4355-3.4961z" stroke-width=".0026667"/>
  </g>
 </g>
</svg>
