<svg width="33.612mm" height="22.59mm" version="1.1" viewBox="0 0 33.612 22.59" xmlns="http://www.w3.org/2000/svg">
 <g transform="translate(-60.987 -35.687)">
  <g transform="matrix(.37876 0 0 .37876 52.984 36.799)">
   <g fill="#000000" font-family="sans-serif" stroke-width=".26458">
    <text x="36.496994" y="30.843397" font-size="10.583px" style="line-height:1.25" xml:space="preserve"><tspan x="36.496994" y="30.843397" font-family="Verdana" font-size="8.4667px">Projet en travaux</tspan></text>
    <text x="36.496994" y="51.953465" font-size="8.4667px" style="line-height:1.25" xml:space="preserve"><tspan x="36.496994" y="51.953465" font-family="Verdana">Projet réalisé</tspan></text>
    <text x="36.891796" y="10.695415" font-size="10.583px" style="line-height:1.25" xml:space="preserve"><tspan x="36.891796" y="10.695415" font-family="Verdana" font-size="8.4666px">Projet en études</tspan></text>
   </g>
   <g stroke-width=".0018628">
    <path d="m27.806 37.552c-0.23073-0.0068-0.4658-0.0024-0.704 0.01364-1.2965 0.08569-2.4607 0.53854-3.4778 1.3507-0.26266 0.20864-0.84777 0.79559-1.0601 1.0601-0.60914 0.76562-1.0085 1.5877-1.2116 2.4968-0.24217 1.0805-0.19995 2.3994 0.10369 3.314 0.05216 0.15275 0.45452 1.0239 1.3002 2.8215 0.6762 1.4306 1.7261 3.6602 2.3372 4.9567 0.65944 1.399 1.1463 2.4068 1.1966 2.4832 0.31668 0.46384 0.95018 0.73439 1.509 0.64125 0.24403-0.0391 0.42682-0.10294 0.61124-0.21284 0.19187-0.11363 0.42878-0.34572 0.52937-0.51709 0.12667-0.21795 4.6602-9.8762 4.7384-10.096 0.29432-0.8252 0.37244-2.0031 0.1992-3.0426-0.21981-1.3319-0.83219-2.4732-1.8624-3.4792-1.1671-1.1361-2.594-1.7425-4.2091-1.79zm-0.19783 3.4832a2.3991 2.4425 0 0 1 2.3986 2.4422 2.3991 2.4425 0 0 1-2.3986 2.4422 2.3991 2.4425 0 0 1-2.3999-2.4422 2.3991 2.4425 0 0 1 2.3999-2.4422z" fill="#33919d"/>
    <path d="m28.026 17.321c-0.23073-0.0068-0.4658-0.0024-0.704 0.01364-1.2965 0.08569-2.4607 0.53854-3.4778 1.3507-0.26266 0.20864-0.84777 0.79559-1.0601 1.0601-0.60914 0.76562-1.0085 1.5877-1.2116 2.4968-0.24217 1.0805-0.19995 2.3994 0.10369 3.314 0.05216 0.15275 0.45452 1.0239 1.3002 2.8215 0.6762 1.4306 1.7261 3.6602 2.3372 4.9567 0.65944 1.399 1.1463 2.4068 1.1966 2.4832 0.31668 0.46384 0.95018 0.73439 1.509 0.64125 0.24403-0.0391 0.42682-0.10294 0.61124-0.21284 0.19187-0.11363 0.42878-0.34572 0.52937-0.51709 0.12667-0.21795 4.6602-9.8762 4.7384-10.096 0.29432-0.8252 0.37244-2.0031 0.1992-3.0426-0.21981-1.3319-0.83219-2.4732-1.8624-3.4792-1.1671-1.1361-2.594-1.7425-4.2091-1.79zm-0.19783 3.4832a2.3991 2.4425 0 0 1 2.3986 2.4422 2.3991 2.4425 0 0 1-2.3986 2.4422 2.3991 2.4425 0 0 1-2.3999-2.4422 2.3991 2.4425 0 0 1 2.3999-2.4422z" fill="#f9a241"/>
    <path d="m27.74-2.9315c-0.23073-0.0068-0.4658-0.0024-0.704 0.01364-1.2965 0.08569-2.4607 0.53854-3.4778 1.3507-0.26266 0.20864-0.84777 0.79559-1.0601 1.0601-0.60914 0.76562-1.0085 1.5877-1.2116 2.4968-0.24217 1.0805-0.19995 2.3994 0.10369 3.314 0.05216 0.15275 0.45452 1.0239 1.3002 2.8215 0.6762 1.4306 1.7261 3.6602 2.3372 4.9567 0.65944 1.399 1.1463 2.4068 1.1966 2.4832 0.31668 0.46384 0.95018 0.73439 1.509 0.64125 0.24403-0.0391 0.42682-0.10294 0.61124-0.21284 0.19187-0.11363 0.42878-0.34572 0.52937-0.51709 0.12667-0.21795 4.6602-9.8762 4.7384-10.096 0.29432-0.8252 0.37244-2.0031 0.1992-3.0426-0.21981-1.3319-0.83219-2.4732-1.8624-3.4792-1.1671-1.1361-2.594-1.7425-4.2091-1.79zm-0.19783 3.4832a2.3991 2.4425 0 0 1 2.3986 2.4422 2.3991 2.4425 0 0 1-2.3986 2.4422 2.3991 2.4425 0 0 1-2.3999-2.4422 2.3991 2.4425 0 0 1 2.3999-2.4422z" fill="#e45e52"/>
   </g>
  </g>
 </g>
</svg>
