<?xml version="1.0" encoding="UTF-8" standalone="no"?>
<svg
   xmlns:dc="http://purl.org/dc/elements/1.1/"
   xmlns:cc="http://creativecommons.org/ns#"
   xmlns:rdf="http://www.w3.org/1999/02/22-rdf-syntax-ns#"
   xmlns:svg="http://www.w3.org/2000/svg"
   xmlns="http://www.w3.org/2000/svg"
   xmlns:sodipodi="http://sodipodi.sourceforge.net/DTD/sodipodi-0.dtd"
   xmlns:inkscape="http://www.inkscape.org/namespaces/inkscape"
   width="48.948116mm"
   height="14.732899mm"
   viewBox="0 0 48.948119 14.732898"
   version="1.1"
   id="svg8"
   inkscape:version="1.0.1 (3bc2e813f5, 2020-09-07)"
   sodipodi:docname="leg_art_ville.svg">
  <defs
     id="defs2" />
  <sodipodi:namedview
     id="base"
     pagecolor="#ffffff"
     bordercolor="#666666"
     borderopacity="1.0"
     inkscape:pageopacity="0.0"
     inkscape:pageshadow="2"
     inkscape:zoom="2.5837501"
     inkscape:cx="60.066973"
     inkscape:cy="40.842817"
     inkscape:document-units="mm"
     inkscape:current-layer="g859"
     inkscape:document-rotation="0"
     showgrid="false"
     inkscape:snap-global="true"
     inkscape:window-width="1920"
     inkscape:window-height="1017"
     inkscape:window-x="1672"
     inkscape:window-y="29"
     inkscape:window-maximized="1"
     units="px"
     fit-margin-top="0"
     fit-margin-left="0"
     fit-margin-right="0"
     fit-margin-bottom="0">
    <inkscape:grid
       type="xygrid"
       id="grid18"
       originx="-60.813318"
       originy="-43.813622" />
    <sodipodi:guide
       position="-61.495842,39.637457"
       orientation="0,488.44125"
       id="guide882" />
    <sodipodi:guide
       position="104.67087,-5.3983806"
       orientation="307.75369,0"
       id="guide884" />
    <sodipodi:guide
       position="89.090758,-44.974296"
       orientation="0,-488.44125"
       id="guide886" />
    <sodipodi:guide
       position="-40.142644,-44.974296"
       orientation="-307.75369,0"
       id="guide888" />
  </sodipodi:namedview>
  <metadata
     id="metadata5">
    <rdf:RDF>
      <cc:Work
         rdf:about="">
        <dc:format>image/svg+xml</dc:format>
        <dc:type
           rdf:resource="http://purl.org/dc/dcmitype/StillImage" />
        <dc:title />
      </cc:Work>
    </rdf:RDF>
  </metadata>
  <g
     inkscape:label="Calque 1"
     inkscape:groupmode="layer"
     id="layer1"
     transform="translate(-60.813305,-43.813633)">
    <g
       id="g859"
       transform="matrix(0.37875745,0,0,0.37875745,52.984139,36.79873)">
      <text
         xml:space="preserve"
         style="font-style:normal;font-weight:normal;font-size:10.5833px;line-height:1.25;font-family:sans-serif;fill:#000000;fill-opacity:1;stroke:none;stroke-width:0.264583"
         x="36.496994"
         y="29.702406"
         id="text22"><tspan
           sodipodi:role="line"
           id="tspan20"
           x="36.496994"
           y="29.702406"
           style="font-style:normal;font-variant:normal;font-weight:normal;font-stretch:normal;font-size:8.46667px;font-family:Verdana;-inkscape-font-specification:Verdana;stroke-width:0.264583">Œuvres sur l'espace public</tspan></text>
      <text
         xml:space="preserve"
         style="font-style:normal;font-weight:normal;font-size:8.46667px;line-height:1.25;font-family:sans-serif;fill:#000000;fill-opacity:1;stroke:none;stroke-width:0.264583"
         x="36.496994"
         y="51.953465"
         id="text22-6"><tspan
           sodipodi:role="line"
           id="tspan20-6"
           x="36.496994"
           y="51.953465"
           style="font-style:normal;font-variant:normal;font-weight:normal;font-stretch:normal;font-size:8.46667px;font-family:Verdana;-inkscape-font-specification:Verdana;stroke-width:0.264583">Œuvres dans un bâtiment</tspan></text>
      <path
         id="path893-17"
         style="fill:#e45e52;fill-opacity:1;stroke:#00ff00;stroke-width:0"
         d="m 26.379785,18.520833 a 5.713059,5.6915789 0 0 0 -4.037049,1.668393 5.713059,5.6915789 0 0 0 -1.324982,5.976332 l 5.391625,9.988993 5.34062,-9.988993 a 5.713059,5.6915789 0 0 0 -1.329198,-5.9805 5.713059,5.6915789 0 0 0 -4.041016,-1.664225 z m 0.02605,3.924216 a 1.7877744,1.7927701 0 0 1 0.0035,0 1.7877744,1.7927701 0 0 1 1.787769,1.792758 1.7877744,1.7927701 0 0 1 -1.787769,1.792757 1.7877744,1.7927701 0 0 1 -1.78777,-1.792757 1.7877744,1.7927701 0 0 1 1.784248,-1.792758 z" />
      <path
         id="path893-17-3"
         style="fill:#33919d;fill-opacity:1;stroke:#00ff00;stroke-width:0"
         d="m 26.432031,39.6875 a 5.7653419,5.7230779 0 0 0 -4.073994,1.677626 5.7653419,5.7230779 0 0 0 -1.337107,6.009406 l 5.440966,10.044276 5.389496,-10.044276 A 5.7653419,5.7230779 0 0 0 30.510029,41.360935 5.7653419,5.7230779 0 0 0 26.432031,39.6875 Z m 0.02629,3.945934 a 1.8041352,1.8026919 0 0 1 0.0035,0 1.8041352,1.8026919 0 0 1 1.804131,1.80268 1.8041352,1.8026919 0 0 1 -1.804131,1.802678 1.8041352,1.8026919 0 0 1 -1.80413,-1.802678 1.8041352,1.8026919 0 0 1 1.800576,-1.80268 z" />
    </g>
  </g>
</svg>
