<?xml version="1.0" encoding="UTF-8" standalone="no"?>
<svg
   xmlns:dc="http://purl.org/dc/elements/1.1/"
   xmlns:cc="http://creativecommons.org/ns#"
   xmlns:rdf="http://www.w3.org/1999/02/22-rdf-syntax-ns#"
   xmlns:svg="http://www.w3.org/2000/svg"
   xmlns="http://www.w3.org/2000/svg"
   xmlns:sodipodi="http://sodipodi.sourceforge.net/DTD/sodipodi-0.dtd"
   xmlns:inkscape="http://www.inkscape.org/namespaces/inkscape"
   width="122.69869pt"
   height="45.563442pt"
   version="1.0"
   viewBox="0 0 122.69869 45.563443"
   id="svg8"
   sodipodi:docname="leg_decheteries.svg"
   inkscape:version="1.0.1 (3bc2e813f5, 2020-09-07)">
  <metadata
     id="metadata14">
    <rdf:RDF>
      <cc:Work
         rdf:about="">
        <dc:format>image/svg+xml</dc:format>
        <dc:type
           rdf:resource="http://purl.org/dc/dcmitype/StillImage" />
      </cc:Work>
    </rdf:RDF>
  </metadata>
  <defs
     id="defs12" />
  <sodipodi:namedview
     pagecolor="#ffffff"
     bordercolor="#666666"
     borderopacity="1"
     objecttolerance="10"
     gridtolerance="10"
     guidetolerance="10"
     inkscape:pageopacity="0"
     inkscape:pageshadow="2"
     inkscape:window-width="1680"
     inkscape:window-height="987"
     id="namedview10"
     showgrid="false"
     inkscape:zoom="2.5724309"
     inkscape:cx="182.78259"
     inkscape:cy="-24.633466"
     inkscape:window-x="-8"
     inkscape:window-y="-8"
     inkscape:window-maximized="1"
     inkscape:current-layer="svg8" />
  <g
     fill="#ffffff"
     id="g6"
     transform="translate(-3.4413132e-4,3.8115222e-4)">
    <g
       transform="matrix(0.002,0,0,-0.002,-4.8823,22.416)"
       fill="#ffffff"
       id="g4">
      <path
         transform="matrix(375,0,0,-375,2441.1,11208)"
         d="M 9.4629,0.0039062 C 9.13261,-0.0058125 8.79609,4.375e-4 8.4551,0.0234372 c -1.856,0.12267 -3.5225,0.77093 -4.9785,1.9336 -0.376,0.29867 -1.2136,1.1389 -1.5176,1.5176 -0.872,1.096 -1.4437,2.2729 -1.7344,3.5742 -0.34667,1.5467 -0.28623,3.4347998 0.14844,4.7440998 0.074667,0.21867 0.65066,1.4657 1.8613,4.0391 0.968,2.048 2.471,5.2397 3.3457,7.0957 0.944,2.0027 1.6409,3.4454 1.7129,3.5547 0.45333,0.664 1.3602,1.0513 2.1602,0.91797 0.34933,-0.056 0.611,-0.14736 0.875,-0.30469 0.27467,-0.16267 0.61381,-0.4949 0.75781,-0.74023 0.18133,-0.312 6.6712,-14.138 6.7832,-14.453 0.42133,-1.1813 0.53316,-2.8674998 0.28516,-4.3554998 -0.31467,-1.9067 -1.1913,-3.5405 -2.666,-4.9805 -1.6707,-1.6263 -3.7134,-2.4945 -6.0254,-2.5625 z m -0.2832,4.9863 a 3.4344,3.4965 0 0 1 3.4336,3.4961 3.4344,3.4965 0 0 1 -3.4336,3.4960998 3.4344,3.4965 0 0 1 -3.4355,-3.4960998 3.4344,3.4965 0 0 1 3.4355,-3.4961 z"
         fill="#33919d"
         stroke-width="0.0026667"
         id="path2" />
    </g>
  </g>
  <text
     xml:space="preserve"
     style="font-size:12px;line-height:1.25;font-family:sans-serif;fill:#000000;stroke-width:0.75"
     x="18.22172"
     y="14.578033"
     id="text841"><tspan
       sodipodi:role="line"
       id="tspan839"
       x="18.22172"
       y="14.578033"
       style="font-size:10px">Canisite</tspan></text>
  
  
</svg>
