<svg width="215.72" height="38.217" version="1.1" viewBox="0 0 215.72 38.217" xml:space="preserve" xmlns="http://www.w3.org/2000/svg"><defs><style>.cls-1{fill:none;stroke:#f1f1ef;stroke-linecap:square;stroke-linejoin:round;stroke-width:3px;}.cls-2{fill:B35205;}</style></defs><title>Légende réutilisable</title><rect x="46.382" y="2.6986" width="46.214" height="32.552" ry="3.4636e-6" fill="#B35205" stroke="#000" stroke-width="2"/><text transform="scale(.96993 1.031)" x="100.62257" y="19.971733" font-family="sans-serif" font-size="8.463px" stroke-width=".76537" style="line-height:1.25" xml:space="preserve"><tspan x="100.62257" y="19.971733">Périmètre des emprises </tspan><tspan x="100.62257" y="32.794472">parcellaires</tspan></text><g transform="matrix(.28785 0 0 .26951 4.904 2.756)" fill="#B35205"><ellipse class="cls-2" cx="57.67" cy="58.3" rx="57.67" ry="58.3"/><path class="cls-1" d="m100.54 43.99-57.8-22.8-20.3 22.8z"/><polyline class="cls-1" points="38.14 101.69 38.14 43.99 42.74 21.19 47.64 43.99 47.64 101.69"/><rect class="cls-1" x="18.34" y="43.99" width="19.8" height="10.5"/><path class="cls-1" d="m98.64 76.69c-0.1 3.4-2.9 6.2-6.4 6.1-3.4-0.1-6.2-2.9-6.1-6.4 0.1-3.4 2.8-6.1 6.2-6.1m-44.7-17.8h44.8v17.2"/></g></svg>
