<?xml version="1.0" encoding="UTF-8" standalone="no"?>
<svg
   xmlns:dc="http://purl.org/dc/elements/1.1/"
   xmlns:cc="http://creativecommons.org/ns#"
   xmlns:rdf="http://www.w3.org/1999/02/22-rdf-syntax-ns#"
   xmlns:svg="http://www.w3.org/2000/svg"
   xmlns="http://www.w3.org/2000/svg"
   xmlns:sodipodi="http://sodipodi.sourceforge.net/DTD/sodipodi-0.dtd"
   xmlns:inkscape="http://www.inkscape.org/namespaces/inkscape"
   width="4.3278446mm"
   height="6.6789031mm"
   viewBox="0 0 4.327845 6.6789026"
   version="1.1"
   id="svg8"
   inkscape:version="1.0.1 (3bc2e813f5, 2020-09-07)"
   sodipodi:docname="vergers.svg">
  <defs
     id="defs2" />
  <sodipodi:namedview
     id="base"
     pagecolor="#ffffff"
     bordercolor="#666666"
     borderopacity="1.0"
     inkscape:pageopacity="0.0"
     inkscape:pageshadow="2"
     inkscape:zoom="11.205521"
     inkscape:cx="26.790534"
     inkscape:cy="12.299464"
     inkscape:document-units="mm"
     inkscape:current-layer="layer1"
     inkscape:document-rotation="0"
     showgrid="false"
     inkscape:snap-global="true"
     inkscape:window-width="1920"
     inkscape:window-height="1017"
     inkscape:window-x="3592"
     inkscape:window-y="-8"
     inkscape:window-maximized="1"
     units="px"
     fit-margin-top="0"
     fit-margin-left="0"
     fit-margin-right="0"
     fit-margin-bottom="0">
    <inkscape:grid
       type="xygrid"
       id="grid18"
       originx="-60.813331"
       originy="-43.813608" />
    <sodipodi:guide
       position="-61.495841,31.58346"
       orientation="0,488.44125"
       id="guide882" />
    <sodipodi:guide
       position="104.67087,-13.452376"
       orientation="307.75369,0"
       id="guide884" />
    <sodipodi:guide
       position="89.090758,-53.028291"
       orientation="0,-488.44125"
       id="guide886" />
    <sodipodi:guide
       position="-40.142643,-53.028291"
       orientation="-307.75369,0"
       id="guide888" />
  </sodipodi:namedview>
  <metadata
     id="metadata5">
    <rdf:RDF>
      <cc:Work
         rdf:about="">
        <dc:format>image/svg+xml</dc:format>
        <dc:type
           rdf:resource="http://purl.org/dc/dcmitype/StillImage" />
        <dc:title></dc:title>
      </cc:Work>
    </rdf:RDF>
  </metadata>
  <g
     inkscape:label="Calque 1"
     inkscape:groupmode="layer"
     id="layer1"
     transform="translate(-60.813305,-43.813633)">
    <g
       id="g859"
       transform="matrix(0.37875745,0,0,0.37875745,52.984139,36.79873)">
      <path
         id="path893-17"
         style="fill:#d485c5;fill-opacity:1;stroke:#00ff00;stroke-width:0"
         d="m 26.379785,18.520833 a 5.713059,5.6915789 0 0 0 -4.037049,1.668393 5.713059,5.6915789 0 0 0 -1.324982,5.976332 l 5.391625,9.988993 5.34062,-9.988993 a 5.713059,5.6915789 0 0 0 -1.329198,-5.9805 5.713059,5.6915789 0 0 0 -4.041016,-1.664225 z m 0.02605,3.924216 a 1.7877744,1.7927701 0 0 1 0.0035,0 1.7877744,1.7927701 0 0 1 1.787769,1.792758 1.7877744,1.7927701 0 0 1 -1.787769,1.792757 1.7877744,1.7927701 0 0 1 -1.78777,-1.792757 1.7877744,1.7927701 0 0 1 1.784248,-1.792758 z" />
    </g>
  </g>
</svg>
