<?xml version="1.0" encoding="UTF-8"?><svg id="Calque_1" xmlns="http://www.w3.org/2000/svg" viewBox="0 0 116.8 116.8" width="25px" height="25px"><defs><style>.cls-1{fill:none;stroke:#000;stroke-miterlimit:10;stroke-width:3px;}.cls-2{fill:#e45e52;}</style></defs><circle class="cls-2" cx="58.4" cy="58.4" r="58.4"/><g><polyline class="cls-1" points="26.7 90.05 26.7 34.65 45 20.75 63.9 34.65 63.9 90.05"/><line class="cls-1" x1="27.7" y1="59.25" x2="62.9" y2="59.25"/><line class="cls-1" x1="37.4" y1="90.05" x2="37.4" y2="59.95"/><line class="cls-1" x1="26.7" y1="70.35" x2="37.1" y2="70.35"/><line class="cls-1" x1="27.1" y1="81.85" x2="37.7" y2="81.85"/><path class="cls-1" d="M36.8,51.65v-5c0-5.1,3.9-9.2,8.6-9.2h0c4.8,0,8.6,4.1,8.6,9.2v12"/><path class="cls-1" d="M64.6,59.35s6.4,0,12.2,16.2c5.8,16.2,14.5,13.4,14.5,13.4"/><path class="cls-1" d="M71.4,52.25s6.4,0,12.2,16.2,14.5,13.4,14.5,13.4"/></g></svg>