<?xml version="1.0" encoding="utf-8"?>
<!-- Generator: Adobe Illustrator 16.0.0, SVG Export Plug-In . SVG Version: 6.00 Build 0)  -->
<!DOCTYPE svg PUBLIC "-//W3C//DTD SVG 1.1//EN" "http://www.w3.org/Graphics/SVG/1.1/DTD/svg11.dtd">
<svg version="1.1" id="Layer_1" xmlns="http://www.w3.org/2000/svg" xmlns:xlink="http://www.w3.org/1999/xlink" x="0px" y="0px"
	 width="26.2487px" height="29.8485px" viewBox="0 0 262.487 298.485" enable-background="new 0 0 262.487 298.485"
	 xml:space="preserve">
<g>
	<g>
		<path d="M248.459,70.02c5.068,3.095,8.506,8.684,8.506,14.957v0.031v95.082v93.013c0,9.542-7.964,17.505-17.505,17.505h-6.684
			H118.256H30.505c-9.542,0-17.505-7.963-17.505-17.505v-0.032v-95.081V84.976c0-6.073,3.317-12.128,8.671-15.117
			c15.283-8.529,30.567-17.06,45.85-25.59c17.381-9.7,34.76-19.402,52.139-29.101c7.778-4.341,14.97-8.751,24.388-3.494
			c4.304,2.402,8.607,4.804,12.909,7.205c30.446,16.994,60.893,33.987,91.338,50.979"/>
	</g>
	<g>
		<path fill="#FFFFFF" d="M161.542,99.419c0-8.462-6.825-15.248-15.257-15.248c-8.429,0-15.25,6.786-15.25,15.248
			c0,8.459,6.821,15.253,15.25,15.253C154.717,114.672,161.542,107.879,161.542,99.419"/>
		<path fill="#FFFFFF" d="M84.727,229.783c-17.617,0-31.948-14.329-31.948-31.947c0-17.616,14.332-31.946,31.948-31.946
			s31.95,14.33,31.95,31.946C116.677,215.454,102.344,229.783,84.727,229.783 M84.727,175.54c-12.293,0-22.294,10.003-22.294,22.295
			c0,12.294,10.001,22.296,22.294,22.296c12.296,0,22.294-10.002,22.294-22.296C107.021,185.543,97.023,175.54,84.727,175.54"/>
		<path fill="#FFFFFF" d="M181.905,229.783c-17.616,0-31.946-14.329-31.946-31.947c0-17.616,14.331-31.946,31.946-31.946
			c17.618,0,31.948,14.33,31.948,31.946C213.854,215.454,199.523,229.783,181.905,229.783 M181.905,175.54
			c-12.293,0-22.295,10.003-22.295,22.295c0,12.294,10.001,22.296,22.295,22.296s22.295-10.002,22.295-22.296
			C204.201,185.543,194.199,175.54,181.905,175.54"/>
		<path fill="#FFFFFF" d="M169.813,142.694h-16.186l-13.28-17.401c-5.136-6.734-14.749-7.545-20.203-1.337l-17.104,19.475
			c-4.319,4.916-4.665,13.561,3.004,18.873l22.088,16.245l-3.98,22.08c-0.742,4.124,1.994,8.067,6.117,8.811
			c0.453,0.084,0.908,0.123,1.354,0.123c3.602,0,6.797-2.572,7.455-6.239l4.823-26.735c0.027-0.153,0.022-0.275,0.03-0.414
			c0.323-2.634-0.709-5.357-2.999-7.042l-16.662-12.253l13.147-14.967l8.208,10.755c1.005,1.311,2.466,2.442,4.934,2.442h19.256
			c3.429,0,6.205-2.778,6.205-6.208C176.018,145.472,173.242,142.694,169.813,142.694"/>
	</g>
</g>
</svg>
