<?xml version="1.0" encoding="UTF-8" standalone="no"?>
<svg
   xmlns:dc="http://purl.org/dc/elements/1.1/"
   xmlns:cc="http://creativecommons.org/ns#"
   xmlns:rdf="http://www.w3.org/1999/02/22-rdf-syntax-ns#"
   xmlns:svg="http://www.w3.org/2000/svg"
   xmlns="http://www.w3.org/2000/svg"
   xmlns:sodipodi="http://sodipodi.sourceforge.net/DTD/sodipodi-0.dtd"
   xmlns:inkscape="http://www.inkscape.org/namespaces/inkscape"
   version="1.0"
   width="13.713449pt"
   height="20.569788pt"
   viewBox="0 0 13.713449 20.569788"
   preserveAspectRatio="xMidYMid meet"
   id="svg6"
   sodipodi:docname="marker.svg"
   inkscape:version="1.0.1 (3bc2e813f5, 2020-09-07)">
  <metadata
     id="metadata12">
    <rdf:RDF>
      <cc:Work
         rdf:about="">
        <dc:format>image/svg+xml</dc:format>
        <dc:type
           rdf:resource="http://purl.org/dc/dcmitype/StillImage" />
        <dc:title></dc:title>
      </cc:Work>
    </rdf:RDF>
  </metadata>
  <defs
     id="defs10" />
  <sodipodi:namedview
     pagecolor="#ffffff"
     bordercolor="#666666"
     borderopacity="1"
     objecttolerance="10"
     gridtolerance="10"
     guidetolerance="10"
     inkscape:pageopacity="0"
     inkscape:pageshadow="2"
     inkscape:window-width="1920"
     inkscape:window-height="1017"
     id="namedview8"
     showgrid="true"
     inkscape:zoom="11.703024"
     inkscape:cx="34.047808"
     inkscape:cy="42.568745"
     inkscape:window-x="-8"
     inkscape:window-y="-8"
     inkscape:window-maximized="1"
     inkscape:current-layer="svg6"
     fit-margin-top="0"
     fit-margin-left="0"
     fit-margin-right="0"
     fit-margin-bottom="0">
    <inkscape:grid
       type="xygrid"
       id="grid14"
       originx="-3.6862644"
       originy="-4.0058447" />
  </sodipodi:namedview>
  <g
     transform="matrix(0.002,0,0,-0.002,-4.8822641,22.416155)"
     fill="#FFFFFF"
     stroke="none"
     id="g4"
     style="fill:#ffffff">
    <path
       d="m 5612,11199 c -696,-46 -1321,-289 -1867,-725 -141,-112 -455,-427 -569,-569 -327,-411 -542,-852 -651,-1340 -130,-580 -107,-1288 56,-1779 28,-82 244,-550 698,-1515 363,-768 927,-1965 1255,-2661 354,-751 615,-1292 642,-1333 170,-249 510,-394 810,-344 131,21 229,55 328,114 103,61 230,186 284,278 68,117 2502,5302 2544,5420 158,443 200,1075 107,1633 -118,715 -447,1328 -1000,1868 -716,697 -1614,1022 -2637,953 z m 611,-1738 c 153,-33 251,-67 392,-136 473,-230 824,-674 930,-1176 36,-168 45,-450 21,-617 -56,-380 -209,-685 -481,-958 -251,-252 -529,-404 -870,-476 -97,-20 -138,-23 -340,-23 -182,0 -251,4 -330,19 -676,126 -1235,685 -1361,1361 -27,143 -27,507 0,650 42,226 148,474 284,665 86,122 290,326 412,412 213,152 454,250 719,293 132,22 495,13 624,-14 z"
       id="path2"
       style="fill:#ffffff" />
  </g>
</svg>
