<?xml version="1.0" encoding="UTF-8"?><svg id="Calque_1" xmlns="http://www.w3.org/2000/svg" xmlns:xlink="http://www.w3.org/1999/xlink" viewBox="0 0 400 400"><defs><style>.cls-1{fill:url(#Dégradé_sans_nom_10);}.cls-1,.cls-2{stroke:#000;stroke-linecap:round;stroke-linejoin:round;stroke-width:9px;}.cls-2{fill:url(#Dégradé_sans_nom_7);}</style><linearGradient id="Dégradé_sans_nom_10" x1="197.76" y1="379.07" x2="196.89" y2="33.65" gradientUnits="userSpaceOnUse"><stop offset="0" stop-color="#fff"/><stop offset="1" stop-color="#ff0"/></linearGradient><radialGradient id="Dégradé_sans_nom_7" cx="352.47" cy="59.39" fx="352.47" fy="59.39" r="250.5" gradientUnits="userSpaceOnUse"><stop offset=".03" stop-color="#fbb03b"/><stop offset=".57" stop-color="#fff"/><stop offset="1" stop-color="#ff0"/></radialGradient></defs><path class="cls-1" d="M296.95,252.1c6.54-7.17,12.27-15.03,17.09-23.44h0l.12-.4c36.1-63.63,13.78-144.48-49.85-180.57-63.63-36.1-144.48-13.78-180.57,49.85-27.87,49.12-21.52,110.51,15.8,152.9-21.23,36.35-45.29,77.37-45.29,77.37l58.15,8.86,35.85,46.58,49.7-84.87,48.32,85.56,36.6-45.99,58.17-7.96-44.08-77.87"/><path class="cls-2" d="M122.36,162.54c.32-42.36,34.93-76.44,77.29-76.11,42.36,.32,76.44,34.93,76.12,77.29-.32,42.35-34.92,76.43-77.27,76.12-42.34-.29-76.43-34.86-76.13-77.2,0-.03,0-.06,0-.09"/></svg>