<?xml version="1.0" encoding="UTF-8"?><svg id="Calque_1" xmlns="http://www.w3.org/2000/svg" xmlns:xlink="http://www.w3.org/1999/xlink" viewBox="0 0 400 400"><defs><style>.cls-1{fill:url(#Dégradé_sans_nom_11);}.cls-1,.cls-2,.cls-3,.cls-4{stroke:#000;stroke-linecap:round;stroke-linejoin:round;stroke-width:9px;}.cls-2{fill:url(#Dégradé_sans_nom_13);}.cls-3{fill:url(#Dégradé_sans_nom_12);}.cls-4{fill:url(#Dégradé_sans_nom_12-2);}</style><linearGradient id="Dégradé_sans_nom_12" x1="135.14" y1="424.07" x2="131.21" y2="168.17" gradientUnits="userSpaceOnUse"><stop offset="0" stop-color="#fff"/><stop offset="1" stop-color="#ff0"/></linearGradient><linearGradient id="Dégradé_sans_nom_12-2" x1="269.07" y1="422.01" x2="265.14" y2="166.11" xlink:href="#Dégradé_sans_nom_12"/><linearGradient id="Dégradé_sans_nom_13" x1="58.3" y1="296.34" x2="194.11" y2="153.11" gradientUnits="userSpaceOnUse"><stop offset="0" stop-color="#fff"/><stop offset="1" stop-color="#ff0"/></linearGradient><radialGradient id="Dégradé_sans_nom_11" cx="237.12" cy="129.26" fx="237.12" fy="129.26" r="69.4" gradientUnits="userSpaceOnUse"><stop offset="0" stop-color="#fff"/><stop offset="1" stop-color="#ff0"/></radialGradient></defs><polyline class="cls-3" points="122.62 191.34 103.43 231.55 49.15 345.23 112.29 329.59 143.42 381 198.08 266.5 216.89 227.11"/><polyline class="cls-4" points="277.38 191.34 296.65 231.71 350.85 345.23 287.71 329.59 256.58 381 207.31 277.79 183.11 227.11"/><polygon class="cls-2" points="196.24 37.14 213.6 19 225.68 41.01 247.14 27.99 253.1 52.37 277.21 45.35 276.66 70.45 301.76 69.9 294.73 94 319.12 99.96 306.09 121.43 328.1 133.5 309.97 150.86 328.1 168.22 306.09 180.29 319.12 201.76 294.73 207.72 301.76 231.82 276.66 231.27 277.21 256.37 253.1 249.35 247.14 273.73 225.68 260.71 213.6 282.72 196.24 264.58 178.88 282.72 166.81 260.71 145.35 273.73 139.38 249.35 115.28 256.37 115.83 231.27 90.73 231.82 97.76 207.72 73.37 201.76 86.39 180.29 64.38 168.22 82.52 150.86 64.38 133.5 86.39 121.43 73.37 99.96 97.76 94 90.73 69.9 115.83 70.45 115.28 45.35 139.38 52.37 145.35 27.99 166.81 41.01 178.88 19 196.24 37.14"/><circle class="cls-1" cx="196.24" cy="150.86" r="80.26"/></svg>