<?xml version="1.0" encoding="UTF-8"?><svg id="Calque_1" xmlns="http://www.w3.org/2000/svg" viewBox="0 0 400 400"><defs><style>.cls-1{fill:#ffe02b;}.cls-1,.cls-2{stroke:#000;stroke-linecap:round;stroke-linejoin:round;stroke-width:9px;}.cls-2{fill:none;}</style></defs><path class="cls-1" d="M296.95,252.1c6.54-7.17,12.27-15.03,17.09-23.44h0l.12-.4c36.1-63.63,13.78-144.48-49.85-180.57-63.63-36.1-144.48-13.78-180.57,49.85-27.87,49.12-21.52,110.51,15.8,152.9-21.23,36.35-45.29,77.37-45.29,77.37l58.15,8.86,35.85,46.58,49.7-84.87,48.32,85.56,36.6-45.99,58.17-7.96-44.08-77.87"/><path class="cls-2" d="M122.36,162.54c.32-42.36,34.93-76.44,77.29-76.11,42.36,.32,76.44,34.93,76.12,77.29-.32,42.35-34.92,76.43-77.27,76.12-42.34-.29-76.43-34.86-76.13-77.2,0-.03,0-.06,0-.09"/></svg>