<?xml version="1.0" encoding="UTF-8" standalone="no"?>
<svg
   xmlns:dc="http://purl.org/dc/elements/1.1/"
   xmlns:cc="http://creativecommons.org/ns#"
   xmlns:rdf="http://www.w3.org/1999/02/22-rdf-syntax-ns#"
   xmlns:svg="http://www.w3.org/2000/svg"
   xmlns="http://www.w3.org/2000/svg"
   xmlns:sodipodi="http://sodipodi.sourceforge.net/DTD/sodipodi-0.dtd"
   xmlns:inkscape="http://www.inkscape.org/namespaces/inkscape"
   id="Calque_1"
   data-name="Calque 1"
   viewBox="0 0 437.14544 110.66563"
   width="110.51119"
   height="27.97648"
   version="1.1"
   sodipodi:docname="legend_dircove_enfance.svg"
   inkscape:version="1.0.1 (3bc2e813f5, 2020-09-07)">
  <metadata
     id="metadata27">
    <rdf:RDF>
      <cc:Work
         rdf:about="">
        <dc:format>image/svg+xml</dc:format>
        <dc:type
           rdf:resource="http://purl.org/dc/dcmitype/StillImage" />
      </cc:Work>
    </rdf:RDF>
  </metadata>
  <sodipodi:namedview
     pagecolor="#ffffff"
     bordercolor="#666666"
     borderopacity="1"
     objecttolerance="10"
     gridtolerance="10"
     guidetolerance="10"
     inkscape:pageopacity="0"
     inkscape:pageshadow="2"
     inkscape:window-width="1680"
     inkscape:window-height="987"
     id="namedview25"
     showgrid="false"
     inkscape:zoom="3.9146342"
     inkscape:cx="20.290863"
     inkscape:cy="6.6999405"
     inkscape:window-x="-8"
     inkscape:window-y="-8"
     inkscape:window-maximized="1"
     inkscape:current-layer="Calque_1"
     inkscape:document-rotation="0" />
  <circle
     cx="55.330002"
     cy="55.335629"
     r="55.330002"
     style="fill:#948cbe"
     id="circle2" />
  <g
     id="_11f9ZI"
     data-name="11f9ZI"
     transform="translate(-4.3199997,-4.644371)">
    <path
       d="m 87.88,79.39 v 0 18.72 H 72.82 V 71.18 L 72.35,71 a 35.52,35.52 0 0 1 -2.74,3.36 4,4 0 0 1 -2.3,1.12 c -2,0.16 -4,0 -6.06,0.08 A 2.4,2.4 0 0 1 58.72,74.11 C 56,69.27 53.2,64.47 50,59.71 V 98.14 H 31.11 V 71.77 h -3.26 a 4.42,4.42 0 0 1 -4.41,-4.42 v -2.09 c 0,-5.18 0,-10.37 0,-15.55 0,-5.18 3.06,-8.16 8.16,-8.19 4.11,0 8.21,0 12.32,0 a 7.21,7.21 0 0 1 6.93,3.93 c 4,7.09 8.14,14.08 12.24,21.11 a 1.67,1.67 0 0 0 3,0.17 l 2.45,-3.21 a 7.22,7.22 0 0 1 6.07,-3 c 3.21,0 6.41,0 9.62,0 a 7.37,7.37 0 0 1 7.27,6.73 c 0.21,2.74 0.15,5.5 0.1,8.29 a 3.94,3.94 0 0 1 -3.72,3.85 z"
       style="fill:#ffffff"
       id="path4" />
    <path
       d="m 38.59,37.59 a 7.51,7.51 0 0 1 -0.06,-15 7.34,7.34 0 0 1 7.56,7.48 7.33,7.33 0 0 1 -7.5,7.52 z"
       style="fill:#ffffff"
       id="path6" />
    <path
       d="m 74.69,51 a 5.59,5.59 0 0 1 5.58,-5.68 5.66,5.66 0 0 1 0,11.31 A 5.58,5.58 0 0 1 74.69,51 Z"
       style="fill:#ffffff"
       id="path8" />
  </g>
  <circle
     cx="214.25771"
     cy="55.330002"
     r="55.330002"
     style="fill:#948cbe"
     id="circle2-3" />
  <g
     id="i84PbB.tif-1"
     transform="translate(154.02771,-4.6899992)">
    <path
       d="m 87.88,79.39 v 0 18.72 H 72.82 V 71.18 L 72.35,71 a 35.52,35.52 0 0 1 -2.74,3.36 4,4 0 0 1 -2.3,1.12 c -2,0.16 -4,0 -6.06,0.08 A 2.4,2.4 0 0 1 58.72,74.11 C 56,69.27 53.2,64.47 50,59.71 V 98.14 H 31.11 V 71.77 h -3.26 a 4.42,4.42 0 0 1 -4.41,-4.42 v -2.09 c 0,-5.18 0,-10.37 0,-15.55 0,-5.18 3.06,-8.16 8.16,-8.19 4.11,0 8.21,0 12.32,0 a 7.21,7.21 0 0 1 6.93,3.93 c 4,7.09 8.14,14.08 12.24,21.11 a 1.67,1.67 0 0 0 3,0.17 l 2.45,-3.21 a 7.22,7.22 0 0 1 6.07,-3 c 3.21,0 6.41,0 9.62,0 a 7.37,7.37 0 0 1 7.27,6.73 c 0.21,2.74 0.15,5.5 0.1,8.29 a 3.94,3.94 0 0 1 -3.72,3.85 z"
       style="fill:#ffffff"
       id="path12" />
    <path
       d="m 38.59,37.59 a 7.51,7.51 0 0 1 -0.06,-15 7.34,7.34 0 0 1 7.56,7.48 7.33,7.33 0 0 1 -7.5,7.52 z"
       style="fill:#ffffff"
       id="path14" />
    <path
       d="m 74.69,51 a 5.59,5.59 0 0 1 5.58,-5.68 5.66,5.66 0 0 1 0,11.31 A 5.58,5.58 0 0 1 74.69,51 Z"
       style="fill:#ffffff"
       id="path16" />
  </g>
  <defs
     id="defs13">
    <style
       id="style11">.cls-1{fill:#ffe02b;}.cls-1,.cls-2{stroke:#000;stroke-linecap:round;stroke-linejoin:round;stroke-width:9px;}.cls-2{fill:none;}</style>
  </defs>
  <g
     transform="matrix(0.16106061,0,0,0.15708083,213.86189,-3.6388332)"
     id="g19">
    <path
       class="cls-1"
       d="m 296.95,252.1 c 6.54,-7.17 12.27,-15.03 17.09,-23.44 v 0 l 0.12,-0.4 C 350.26,164.63 327.94,83.78 264.31,47.69 200.68,11.59 119.83,33.91 83.74,97.54 55.87,146.66 62.22,208.05 99.54,250.44 78.31,286.79 54.25,327.81 54.25,327.81 l 58.15,8.86 35.85,46.58 49.7,-84.87 48.32,85.56 36.6,-45.99 58.17,-7.96 -44.08,-77.87"
       id="path15" />
    <path
       class="cls-2"
       d="m 122.36,162.54 c 0.32,-42.36 34.93,-76.44 77.29,-76.11 42.36,0.32 76.44,34.93 76.12,77.29 -0.32,42.35 -34.92,76.43 -77.27,76.12 -42.34,-0.29 -76.43,-34.86 -76.13,-77.2 0,-0.03 0,-0.06 0,-0.09"
       id="path17" />
  </g>
  <text
     xml:space="preserve"
     style="font-style:normal;font-variant:normal;font-weight:normal;font-stretch:normal;font-size:42.1939px;line-height:1.25;font-family:Calibri;-inkscape-font-specification:Calibri;fill:#000000;fill-opacity:1;stroke:none;stroke-width:3.95567"
     x="273.8295"
     y="108.82762"
     id="text850"><tspan
       sodipodi:role="line"
       id="tspan848"
       x="273.8295"
       y="108.82762"
       style="font-style:normal;font-variant:normal;font-weight:normal;font-stretch:normal;font-size:42.1939px;font-family:Calibri;-inkscape-font-specification:Calibri;stroke-width:3.95567">Ecobonus</tspan></text>
</svg>
