<svg id="Calque_1" data-name="Calque 1" xmlns="http://www.w3.org/2000/svg" viewBox="0 0 118.67 118.67" width="30px" height="30px"><circle cx="59.65" cy="59.98" r="55.33" style="fill:#a596c8"/><g id="_11f9ZI" data-name="11f9ZI"><path d="M87.88,79.39h0V98.11H72.82V71.18L72.35,71a35.52,35.52,0,0,1-2.74,3.36,4,4,0,0,1-2.3,1.12c-2,.16-4,0-6.06.08a2.4,2.4,0,0,1-2.53-1.45C56,69.27,53.2,64.47,50,59.71V98.14H31.11V71.77H27.85a4.42,4.42,0,0,1-4.41-4.42V65.26c0-5.18,0-10.37,0-15.55s3.06-8.16,8.16-8.19c4.11,0,8.21,0,12.32,0a7.21,7.21,0,0,1,6.93,3.93c4,7.09,8.14,14.08,12.24,21.11a1.67,1.67,0,0,0,3,.17l2.45-3.21a7.22,7.22,0,0,1,6.07-3c3.21,0,6.41,0,9.62,0a7.37,7.37,0,0,1,7.27,6.73c.21,2.74.15,5.5.1,8.29A3.94,3.94,0,0,1,87.88,79.39Z" style="fill:#fff"/><path d="M38.59,37.59a7.51,7.51,0,0,1-.06-15,7.34,7.34,0,0,1,7.56,7.48A7.33,7.33,0,0,1,38.59,37.59Z" style="fill:#fff"/><path d="M74.69,51a5.59,5.59,0,0,1,5.58-5.68,5.66,5.66,0,0,1,0,11.31A5.58,5.58,0,0,1,74.69,51Z" style="fill:#fff"/></g></svg>