<svg id="Calque_1" data-name="Calque 1" xmlns="http://www.w3.org/2000/svg" viewBox="0 0 118.67 118.67" width="30px" height="30px"><circle cx="60.23" cy="60.02" r="55.33" style="fill:#97be28"/><g id="i84PbB.tif"><path d="M49.8,94.73c2.56-7.87,2.46-13.68,1.85-17.32-.35-2.07-.85-4-4.47-2.53s-5.44.57-8.68-.17A13.87,13.87,0,0,1,31.6,71c-2.46-2.52-2.94-4.51-3.13-9.06-.22-5.1,2.26-9.23,6.43-12.16a.64.64,0,0,0,.24-.7,14.26,14.26,0,0,1,.26-8.77,12.65,12.65,0,0,1,11.89-8.48.94.94,0,0,0,.88-.51c3-4.88,7.53-7.2,13.37-6.53a13.77,13.77,0,0,1,10.33,7.53.67.67,0,0,0,.66.42,15,15,0,0,1,2.32.24,13.4,13.4,0,0,1,10.6,15.52.61.61,0,0,0,.33.73,13.28,13.28,0,0,1,5.85,8.21c.16.62.25,1.25.37,1.89v2.44c0,.09-.25,1.51-.44,2.7a12.68,12.68,0,0,1-2.56,6c-2,2.47-10.19,8.23-17.2,5.16-2.67-1.16-2.9.41-3.17,3-.47,4.51,0,11,2.35,16" style="fill:none;stroke:#fff;stroke-linecap:round;stroke-miterlimit:10;stroke-width:6px"/></g></svg>