<?xml version="1.0" encoding="utf-8"?>
<!-- Generator: Adobe Illustrator 27.1.1, SVG Export Plug-In . SVG Version: 6.00 Build 0)  -->
<svg version="1.1" id="Calque_1" xmlns="http://www.w3.org/2000/svg" xmlns:xlink="http://www.w3.org/1999/xlink" x="0px" y="0px"
	 width="340.2px" height="141.7px" viewBox="0 0 340.2 141.7" style="enable-background:new 0 0 340.2 141.7;" xml:space="preserve"
	>
<style type="text/css">
	.st0{fill:#FFFFFF;}
</style>
<g id="RENNES_MÉTROPOLE">
	<path class="st0" d="M223.8,52.1c1.4,4.8,5.6,7.9,12.1,7.9c6.7,0,11.2-3.1,11.2-8.7c0-4.6-2.9-7.5-10.9-8.7c-4.5-0.6-6-1.7-6-4
		c0-2.4,2-3.5,4.9-3.5c3.7,0,5.6,1.6,6.4,4.9l4.7-1.4c-1.3-5-4.9-8-11.1-8c-6.1,0-10.1,2.9-10.1,8.3c0,3.9,2,7.1,10,8.2
		c5.2,0.7,6.8,1.9,6.8,4.4c0,2.6-2.1,4-5.6,4c-4.1,0-6.7-1.8-7.9-5.2L223.8,52.1z M200.6,42.9c0.6-4.5,3.2-7.6,7.8-7.6
		c4.3,0,7.2,2.6,7.2,7.6H200.6z M220.7,44.1c0-8.7-4.8-13.4-12.2-13.4c-8.3,0-13.1,5.9-13.1,14.6c0,8.8,4.8,14.6,13.4,14.6
		c6.1,0,10.2-2.9,11.5-7.8l-4.8-1.5c-1,3.6-3.9,4.6-6.8,4.6c-5.4,0-7.9-3.4-8.2-8h20.2V44.1z M171.4,59.4V38.8
		c2.7,2.6,10.7,14.2,13.7,20.5h5.1V31.3h-4.9v18.9c-3.7-6.5-8.7-13.2-14.1-18.9h-4.7v28.1C166.4,59.4,171.4,59.4,171.4,59.4z
		 M141,59.4V38.8c2.7,2.6,10.7,14.2,13.7,20.5h5.1V31.3h-4.9v18.9c-3.7-6.5-8.7-13.2-14.1-18.9H136v28.1C136,59.4,141,59.4,141,59.4
		z M110.7,42.9c0.6-4.5,3.2-7.6,7.8-7.6c4.3,0,7.2,2.6,7.2,7.6H110.7z M130.8,44.1c0-8.7-4.8-13.4-12.2-13.4
		c-8.3,0-13.1,5.9-13.1,14.6c0,8.8,4.8,14.6,13.4,14.6c6.1,0,10.2-2.9,11.5-7.8l-4.8-1.5c-1,3.6-3.9,4.6-6.8,4.6
		c-5.4,0-7.9-3.4-8.2-8h20.2V44.1L130.8,44.1z M90.3,35.9c4,0,6.1,1.9,6.1,5.1c0,2.9-1.7,4.9-5.6,4.9h-6.8v-9.9H90.3z M95.2,49.4
		c5-1.6,6.6-5.4,6.6-9.1c0-5.7-4-9.1-10.8-9.1H79.3v28.1h4.9v-9.1h5.2H90l1.9,3.1c3.3,5.4,4.7,6.3,9.9,6.3v-4.8
		c-2.7,0-3.7-0.9-5.9-4.4L95.2,49.4z"/>
	<path class="st0" d="M316.3,80.6c0.6-4.5,3.2-7.6,7.8-7.6c4.3,0,7.2,2.6,7.2,7.6H316.3z M336.4,81.7c0-8.7-4.8-13.4-12.2-13.4
		c-8.3,0-13.1,5.9-13.1,14.6c0,8.8,4.8,14.6,13.4,14.6c6.1,0,10.2-2.9,11.5-7.8l-4.8-1.5c-1,3.6-3.9,4.6-6.8,4.6
		c-5.4,0-7.9-3.4-8.2-8h20.2V81.7z M295.3,68.9h-4.9V97h18.7v-4.7h-13.7L295.3,68.9L295.3,68.9z M271.2,92.8c-5.3,0-8.9-3.9-8.9-9.9
		c0-5.7,3.7-9.9,8.9-9.9c5.3,0,8.9,4.1,8.9,9.9C280.1,88.9,276.6,92.8,271.2,92.8 M271.2,97.5c8.4,0,14.2-5.7,14.2-14.6
		c0-8.6-5.6-14.6-14.2-14.6c-8.4,0-14.2,6-14.2,14.6C257.1,91.8,262.8,97.5,271.2,97.5 M235.9,83.9V73.6h6.5c4,0,6.2,1.8,6.2,5.2
		s-2.2,5.2-6.2,5.2H235.9z M231,68.9V97h4.9v-8.5h6.1c8.3,0,11.8-4,11.8-9.9c0-5.9-3.5-9.9-11.8-9.9L231,68.9L231,68.9z M211.8,92.8
		c-5.3,0-8.9-3.9-8.9-9.9c0-5.7,3.7-9.9,8.9-9.9c5.3,0,8.9,4.1,8.9,9.9C220.8,88.9,217.2,92.8,211.8,92.8 M211.8,97.5
		c8.4,0,14.2-5.7,14.2-14.6c0-8.6-5.6-14.6-14.2-14.6s-14.2,6-14.2,14.6C197.8,91.8,203.4,97.5,211.8,97.5 M182.7,73.5
		c4,0,6.1,1.9,6.1,5.1c0,2.9-1.7,4.9-5.6,4.9h-6.8v-9.9H182.7z M187.5,87c5-1.6,6.6-5.4,6.6-9.1c0-5.7-4-9.1-10.8-9.1h-11.7v28.1
		h4.9v-9.2h5.2h0.6l1.9,3.1c3.3,5.4,4.7,6.3,9.9,6.3v-4.8c-2.7,0-3.7-0.9-5.9-4.4L187.5,87z M157.5,97V73.5h10v-4.6h-24.5v4.7h9.5
		v23.5L157.5,97L157.5,97z M121,80.6c0.6-4.5,3.2-7.6,7.8-7.6c4.3,0,7.2,2.6,7.2,7.6H121z M141.2,81.7c0-8.7-4.8-13.4-12.2-13.4
		c-8.3,0-13.1,5.9-13.1,14.6c0,8.8,4.8,14.6,13.4,14.6c6.1,0,10.2-2.9,11.5-7.8l-4.8-1.5c-1,3.6-3.9,4.6-6.8,4.6
		c-5.4,0-7.9-3.4-8.2-8h20.2L141.2,81.7L141.2,81.7z M134.6,59.6l-10,3.6l1.2,3.4l10-3.4L134.6,59.6z M109,68.9h-4.9
		c-3.2,6.5-6.1,13-8.4,20.5h-0.4c-2.3-7.5-5.3-14-8.4-20.5h-4.9L78.7,97h4.9l2.2-19.4c2.6,6,4.9,12.1,6.9,18.5h5.5
		c2-6.4,4.3-12.6,6.9-18.5l2.2,19.4h4.9L109,68.9z"/>
	<path class="st0" d="M42.2,81.3c-4.1-5.8-6.8-7.6-12.6-8.5v5.4c4,0.6,5.8,2.6,8.4,6.4c6.8,9.8,10.7,13.8,24.6,13.2v-5.2
		C51.9,93.2,48.3,89.9,42.2,81.3 M45.6,78.6c5.8,8,9,10.8,17,10.1v-5.2c-5.9,0.7-8.8-2.3-12.9-8.1C44.7,68.4,39,64.6,29.5,64v5.2
		C36.4,69.6,40.7,71.9,45.6,78.6 M10,96.9h5.4V51.8c-1.7,0.6-3.7,1.2-5.4,2V96.9z M25.1,49.3c-1.7,0.2-3.7,0.6-5.4,1v46.6h5.4V49.3z
		 M53.8,54.5c0-8.9-7.1-14.9-21-14.9c-7.3,0-16,1.7-22.7,4.5v5.6c6.2-2.8,15.1-4.8,22.7-4.8c10.1,0,15.6,3.3,15.6,9.9
		c0,3.8-1.9,7.1-5.3,9.1c1.5,0.8,2.9,2,4.2,3.1C51.4,64.2,53.8,59.6,53.8,54.5 M33.4,30.1c-7.7,0-15.7,1.7-23.3,4.1v5.6
		c8.3-3.1,16.4-4.5,23.3-4.5c15.8,0,25,7.2,25,18.5c0,6.7-2.9,12.3-8.3,16c1.1,1.2,2.4,2.7,3.3,3.9c6.8-4.6,10.3-12,10.3-19.9
		C63.9,39.6,52.2,30.1,33.4,30.1"/>
</g>
</svg>
