<?xml version="1.0" encoding="utf-8"?>
<!-- Generator: Adobe Illustrator 27.1.1, SVG Export Plug-In . SVG Version: 6.00 Build 0)  -->
<svg version="1.1" xmlns="http://www.w3.org/2000/svg" xmlns:xlink="http://www.w3.org/1999/xlink" x="0px" y="0px" width="340.2px"
	 height="141.7px" viewBox="0 0 340.2 141.7" style="enable-background:new 0 0 340.2 141.7;" xml:space="preserve">
<style type="text/css">
	.st0{fill:#FFFFFF;}
</style>
<g id="Repères">
</g>
<g id="Ville_de_RENNES_00000135674422015625983010000001354223392620171191_">
	<path class="st0" d="M258.5,43.3c3.7,0,6.4,2.4,6.4,6.7h-13.1C252.2,46.1,254.5,43.3,258.5,43.3 M270.2,51.1
		c0-8.1-4.5-12.5-11.6-12.5c-8,0-12.4,5.5-12.4,13.6c0,8.1,4.5,13.6,12.8,13.6c5.9,0,9.5-2.8,10.8-7.4l-4.7-1.6
		c-0.8,2.7-3.1,4-6.2,4c-4.6,0-6.7-2.9-7.1-6.9h18.5V51.1z M229,60.8c-4.3,0-7.2-3.2-7.2-8.5s2.9-8.5,7.2-8.5c4.4,0,7.1,3.2,7.1,8.5
		S233.4,60.8,229,60.8 M227.6,65.8c3.4,0,6.7-1.4,8.3-4.6h0.3v4h5.6V30.7h-5.6v12.6h-0.3c-1.5-3.1-4.9-4.6-8.3-4.6
		c-6.7,0-11.7,5.2-11.7,13.6S220.9,65.8,227.6,65.8 M190.7,43.3c3.7,0,6.4,2.4,6.4,6.7h-13.1C184.4,46.1,186.6,43.3,190.7,43.3
		 M202.4,51.1c0-8.1-4.5-12.5-11.6-12.5c-8,0-12.4,5.5-12.4,13.6c0,8.1,4.5,13.6,12.8,13.6c5.9,0,9.5-2.8,10.8-7.4l-4.7-1.6
		c-0.8,2.7-3.1,4-6.2,4c-4.6,0-6.7-2.9-7.1-6.9h18.5V51.1z M173.4,30.7h-5.6v34.6h5.6V30.7z M161.3,30.7h-5.6v34.6h5.6V30.7z
		 M149,39.2h-5.6v26.1h5.6V39.2z M146.2,36.2c1.9,0,3.4-1.6,3.4-3.5c0-1.9-1.5-3.5-3.4-3.5c-2,0-3.5,1.6-3.5,3.5
		C142.7,34.5,144.3,36.2,146.2,36.2 M126.9,65.3l11.9-33.7h-6.3L123,59.3h-0.4L113,31.6h-6.3l11.9,33.7H126.9z"/>
	<path class="st0" d="M284,101.5c1.8,5.8,6.6,9.4,14.5,9.4c8,0,13.4-3.7,13.4-10.5c0-5.5-3.5-9-13-10.3c-5.4-0.8-7.2-2.1-7.2-4.7
		c0-2.9,2.3-4.2,5.9-4.2c4.4,0,6.7,1.9,7.7,5.8l5.6-1.6c-1.5-6-5.9-9.5-13.3-9.5c-7.3,0-12,3.5-12,9.9c0,4.7,2.4,8.4,12,9.8
		c6.2,0.9,8.2,2.2,8.2,5.2c0,3.1-2.5,4.7-6.7,4.7c-5,0-8-2.2-9.4-6.2L284,101.5z M256.2,90.6c0.6-5.3,3.8-9,9.3-9
		c5.1,0,8.5,3.1,8.5,9H256.2z M280.3,92c0-10.4-5.8-16-14.6-16c-10,0-15.7,7-15.7,17.4c0,10.6,5.7,17.4,16,17.4
		c7.4,0,12.2-3.5,13.8-9.3l-5.7-1.8c-1.2,4.3-4.7,5.5-8.2,5.5c-6.5,0-9.4-4-9.8-9.5h24.2V92z M221.3,110.3V85.7
		c3.3,3.1,12.7,16.9,16.4,24.6h6.1V76.6h-5.9v22.6c-4.4-7.8-10.5-15.8-16.8-22.6h-5.7v33.7H221.3z M185,110.3V85.7
		c3.3,3.1,12.7,16.9,16.4,24.6h6.1V76.6h-5.9v22.6c-4.4-7.8-10.5-15.8-16.8-22.6H179v33.7H185z M148.7,90.6c0.6-5.3,3.8-9,9.3-9
		c5.1,0,8.5,3.1,8.5,9H148.7z M172.8,92c0-10.4-5.8-16-14.6-16c-10,0-15.7,7-15.7,17.4c0,10.6,5.7,17.4,16,17.4
		c7.4,0,12.2-3.5,13.8-9.3l-5.7-1.8c-1.2,4.3-4.7,5.5-8.2,5.5c-6.5,0-9.4-4-9.8-9.5h24.2V92z M124.3,82.1c4.8,0,7.3,2.3,7.3,6.1
		c0,3.5-2.1,5.8-6.6,5.8h-8.1V82.1H124.3z M130.1,98.3c6-1.9,7.9-6.5,7.9-10.8c0-6.8-4.8-10.9-13-10.9h-14v33.7h5.9v-11h6.2h0.7
		l2.3,3.7c4,6.4,5.6,7.5,11.9,7.5v-5.7c-3.3,0-4.4-1-7.1-5.2L130.1,98.3z"/>
	<path class="st0" d="M66.8,91.5c-4.9-6.9-8.2-9.1-15.1-10.2v6.4c4.8,0.7,7,3.1,10.1,7.6c8.2,11.7,12.8,16.6,29.5,15.7v-6.2
		C78.3,105.7,74,101.8,66.8,91.5 M70.8,88.3c7,9.6,10.7,13,20.4,12.1v-6.2c-7.1,0.8-10.5-2.8-15.4-9.7C69.8,76,63,71.4,51.7,70.8
		v6.3C59.8,77.5,65,80.3,70.8,88.3 M28.3,110.2h6.5v-54c-2,0.6-4.5,1.4-6.5,2.4V110.2z M46.3,53.2c-2,0.3-4.5,0.7-6.5,1.2v55.7h6.5
		V53.2z M80.6,59.4c0-10.7-8.4-17.8-25.1-17.8c-8.7,0-19.2,2-27.2,5.3v6.6c7.4-3.3,18.1-5.7,27.2-5.7c12.1,0,18.6,4,18.6,11.8
		c0,4.6-2.3,8.5-6.4,11c1.8,0.9,3.5,2.4,5,3.7C77.8,71,80.6,65.5,80.6,59.4 M56.2,30.3c-9.3,0-18.7,2-27.9,5v6.6
		c10-3.7,19.6-5.4,27.9-5.4c18.9,0,30,8.6,30,22.2c0,8-3.4,14.7-9.9,19.2c1.4,1.5,2.8,3.2,4,4.7c8.1-5.5,12.4-14.4,12.4-23.8
		C92.7,41.6,78.7,30.3,56.2,30.3"/>
</g>
</svg>
