<?xml version="1.0" encoding="UTF-8" standalone="no"?>
<svg
   xmlns:dc="http://purl.org/dc/elements/1.1/"
   xmlns:cc="http://creativecommons.org/ns#"
   xmlns:rdf="http://www.w3.org/1999/02/22-rdf-syntax-ns#"
   xmlns:svg="http://www.w3.org/2000/svg"
   xmlns="http://www.w3.org/2000/svg"
   xmlns:sodipodi="http://sodipodi.sourceforge.net/DTD/sodipodi-0.dtd"
   xmlns:inkscape="http://www.inkscape.org/namespaces/inkscape"
   id="Calque_1"
   data-name="Calque 1"
   viewBox="0 0 118.67 118.67"
   version="1.1"
   sodipodi:docname="DIRCOVE-03_EcoB.svg"
   inkscape:version="1.0.1 (3bc2e813f5, 2020-09-07)">
  <metadata
     id="metadata18">
    <rdf:RDF>
      <cc:Work
         rdf:about="">
        <dc:format>image/svg+xml</dc:format>
        <dc:type
           rdf:resource="http://purl.org/dc/dcmitype/StillImage" />
      </cc:Work>
    </rdf:RDF>
  </metadata>
  <defs
     id="defs16" />
  <sodipodi:namedview
     pagecolor="#ffffff"
     bordercolor="#666666"
     borderopacity="1"
     objecttolerance="10"
     gridtolerance="10"
     guidetolerance="10"
     inkscape:pageopacity="0"
     inkscape:pageshadow="2"
     inkscape:window-width="1680"
     inkscape:window-height="987"
     id="namedview14"
     showgrid="false"
     inkscape:zoom="1.1890656"
     inkscape:cx="-220.37222"
     inkscape:cy="41.223175"
     inkscape:window-x="-8"
     inkscape:window-y="-8"
     inkscape:window-maximized="1"
     inkscape:current-layer="Calque_1" />
  <circle
     cx="59.65"
     cy="59.98"
     r="55.33"
     style="fill:#948CBE"
     id="circle2" />
  <g
     id="_11f9ZI"
     data-name="11f9ZI">
    <path
       d="M87.88,79.39h0V98.11H72.82V71.18L72.35,71a35.52,35.52,0,0,1-2.74,3.36,4,4,0,0,1-2.3,1.12c-2,.16-4,0-6.06.08a2.4,2.4,0,0,1-2.53-1.45C56,69.27,53.2,64.47,50,59.71V98.14H31.11V71.77H27.85a4.42,4.42,0,0,1-4.41-4.42V65.26c0-5.18,0-10.37,0-15.55s3.06-8.16,8.16-8.19c4.11,0,8.21,0,12.32,0a7.21,7.21,0,0,1,6.93,3.93c4,7.09,8.14,14.08,12.24,21.11a1.67,1.67,0,0,0,3,.17l2.45-3.21a7.22,7.22,0,0,1,6.07-3c3.21,0,6.41,0,9.62,0a7.37,7.37,0,0,1,7.27,6.73c.21,2.74.15,5.5.1,8.29A3.94,3.94,0,0,1,87.88,79.39Z"
       style="fill:#fff"
       id="path4" />
    <path
       d="M38.59,37.59a7.51,7.51,0,0,1-.06-15,7.34,7.34,0,0,1,7.56,7.48A7.33,7.33,0,0,1,38.59,37.59Z"
       style="fill:#fff"
       id="path6" />
    <path
       d="M74.69,51a5.59,5.59,0,0,1,5.58-5.68,5.66,5.66,0,0,1,0,11.31A5.58,5.58,0,0,1,74.69,51Z"
       style="fill:#fff"
       id="path8" />
  </g>
  <ellipse
     style="fill:#4dbd40;fill-opacity:0.85161293;stroke:#ffffff;stroke-width:3.44903;stroke-miterlimit:4;stroke-dasharray:none;stroke-opacity:1"
     cx="92.917862"
     cy="25.273661"
     id="circle11"
     rx="23.973721"
     ry="23.453382" />
</svg>
