<?xml version="1.0" encoding="UTF-8" standalone="no"?>
<svg
   xmlns:dc="http://purl.org/dc/elements/1.1/"
   xmlns:cc="http://creativecommons.org/ns#"
   xmlns:rdf="http://www.w3.org/1999/02/22-rdf-syntax-ns#"
   xmlns:svg="http://www.w3.org/2000/svg"
   xmlns="http://www.w3.org/2000/svg"
   xmlns:sodipodi="http://sodipodi.sourceforge.net/DTD/sodipodi-0.dtd"
   xmlns:inkscape="http://www.inkscape.org/namespaces/inkscape"
   id="Calque_1"
   data-name="Calque 1"
   viewBox="0 0 118.67 118.67"
   version="1.1"
   sodipodi:docname="DIRCOVE-05_ecoB.svg"
   inkscape:version="1.0.1 (3bc2e813f5, 2020-09-07)">
  <metadata
     id="metadata18">
    <rdf:RDF>
      <cc:Work
         rdf:about="">
        <dc:format>image/svg+xml</dc:format>
        <dc:type
           rdf:resource="http://purl.org/dc/dcmitype/StillImage" />
      </cc:Work>
    </rdf:RDF>
  </metadata>
  <sodipodi:namedview
     pagecolor="#ffffff"
     bordercolor="#666666"
     borderopacity="1"
     objecttolerance="10"
     gridtolerance="10"
     guidetolerance="10"
     inkscape:pageopacity="0"
     inkscape:pageshadow="2"
     inkscape:window-width="1303"
     inkscape:window-height="915"
     id="namedview16"
     showgrid="false"
     inkscape:zoom="2.7786415"
     inkscape:cx="41.708253"
     inkscape:cy="7.898335"
     inkscape:window-x="0"
     inkscape:window-y="0"
     inkscape:window-maximized="0"
     inkscape:current-layer="Calque_1" />
  <circle
     cx="60.23"
     cy="60.02"
     r="55.33"
     style="fill:#97be28"
     id="circle2" />
  <g
     id="i84PbB.tif">
    <path
       d="M49.8,94.73c2.56-7.87,2.46-13.68,1.85-17.32-.35-2.07-.85-4-4.47-2.53s-5.44.57-8.68-.17A13.87,13.87,0,0,1,31.6,71c-2.46-2.52-2.94-4.51-3.13-9.06-.22-5.1,2.26-9.23,6.43-12.16a.64.64,0,0,0,.24-.7,14.26,14.26,0,0,1,.26-8.77,12.65,12.65,0,0,1,11.89-8.48.94.94,0,0,0,.88-.51c3-4.88,7.53-7.2,13.37-6.53a13.77,13.77,0,0,1,10.33,7.53.67.67,0,0,0,.66.42,15,15,0,0,1,2.32.24,13.4,13.4,0,0,1,10.6,15.52.61.61,0,0,0,.33.73,13.28,13.28,0,0,1,5.85,8.21c.16.62.25,1.25.37,1.89v2.44c0,.09-.25,1.51-.44,2.7a12.68,12.68,0,0,1-2.56,6c-2,2.47-10.19,8.23-17.2,5.16-2.67-1.16-2.9.41-3.17,3-.47,4.51,0,11,2.35,16"
       style="fill:none;stroke:#fff;stroke-linecap:round;stroke-miterlimit:10;stroke-width:6px"
       id="path4" />
  </g>
  <defs
     id="defs9">
    <style
       id="style7">.cls-1{fill:#ffe02b;}.cls-1,.cls-2{stroke:#000;stroke-linecap:round;stroke-linejoin:round;stroke-width:9px;}.cls-2{fill:none;}</style>
  </defs>
  <g
     id="g849"
     transform="matrix(0.16106061,0,0,0.15708083,62.281098,-3.1012135)">
    <g
       id="g844">
      <path
         width="15px"
         height="15px"
         class="cls-1"
         d="m 296.95,252.1 c 6.54,-7.17 12.27,-15.03 17.09,-23.44 v 0 l 0.12,-0.4 C 350.26,164.63 327.94,83.78 264.31,47.69 200.68,11.59 119.83,33.91 83.74,97.54 55.87,146.66 62.22,208.05 99.54,250.44 78.31,286.79 54.25,327.81 54.25,327.81 l 58.15,8.86 35.85,46.58 49.7,-84.87 48.32,85.56 36.6,-45.99 58.17,-7.96 -44.08,-77.87"
         id="path11" />
    </g>
    <path
       class="cls-2"
       d="m 122.36,162.54 c 0.32,-42.36 34.93,-76.44 77.29,-76.11 42.36,0.32 76.44,34.93 76.12,77.29 -0.32,42.35 -34.92,76.43 -77.27,76.12 -42.34,-0.29 -76.43,-34.86 -76.13,-77.2 0,-0.03 0,-0.06 0,-0.09"
       id="path13" />
  </g>
</svg>
