<?xml version="1.0" encoding="utf-8"?>
<!-- Generator: Adobe Illustrator 27.8.1, SVG Export Plug-In . SVG Version: 6.00 Build 0)  -->
<svg version="1.2" baseProfile="tiny" id="Calque_1"
	 xmlns="http://www.w3.org/2000/svg" xmlns:xlink="http://www.w3.org/1999/xlink" x="0px" y="0px" width="116.8px" height="116.8px"
	 viewBox="0 0 116.8 116.8" overflow="visible" xml:space="preserve">
<g>
	<path fill="param(fill)" d="M91.4,39.7l-1.5-0.3l-5.4,31.3l-46.3,0l-5.8-29.5l59,0L91.4,39.7l-1.5-0.3L91.4,39.7v-1.5H30.6
		c-0.5,0-0.9,0.2-1.2,0.5c-0.3,0.3-0.4,0.8-0.3,1.2l6.4,32.5c0.1,0.7,0.8,1.2,1.5,1.2h48.8c0.7,0,1.4-0.5,1.5-1.2L92.9,40
		c0.1-0.4,0-0.9-0.3-1.2c-0.3-0.3-0.7-0.5-1.1-0.5V39.7z"/>
	<path fill="param(fill)" d="M15.9,32l11.9,1.7l3.4,17l2.9-0.6L30.6,32c-0.1-0.6-0.6-1.1-1.3-1.2l-14.5-2l-0.4,3L15.9,32z"/>
	<path fill="param(fill)" d="M77.1,83v1.5c1.2,0,2.3,0.5,3,1.3c0.8,0.8,1.3,1.8,1.3,3c0,1.2-0.5,2.3-1.3,3c-0.8,0.8-1.8,1.3-3,1.3
		c-1.2,0-2.3-0.5-3-1.3c-0.8-0.8-1.3-1.8-1.3-3c0-1.2,0.5-2.3,1.3-3c0.8-0.8,1.8-1.3,3-1.3V83v-1.5c-4,0-7.3,3.3-7.3,7.3
		c0,4,3.3,7.3,7.3,7.3c4,0,7.3-3.3,7.3-7.3c0-4-3.3-7.3-7.3-7.3V83z"/>
	<path fill="param(fill)" d="M44.9,82.9v1.5c1.2,0,2.3,0.5,3,1.3c0.8,0.8,1.3,1.8,1.3,3c0,1.2-0.5,2.3-1.3,3c-0.8,0.8-1.8,1.3-3,1.3
		c-1.2,0-2.3-0.5-3-1.3c-0.8-0.8-1.3-1.8-1.3-3c0-1.2,0.5-2.3,1.3-3c0.8-0.8,1.8-1.3,3-1.3V82.9v-1.5c-4,0-7.3,3.3-7.3,7.3
		c0,4,3.3,7.3,7.3,7.3c4,0,7.3-3.3,7.3-7.3c0-4-3.3-7.3-7.3-7.3V82.9z"/>
	<polyline fill="param(fill)" points="69.9,40.1 69.9,73.7 72.9,73.7 72.9,40.1 	"/>
	<polyline fill="param(fill)" points="49.9,38.6 49.9,71.2 52.9,71.2 52.9,38.6 	"/>
	<polyline fill="param(fill)" points="32.9,57.3 89.7,57.3 89.7,54.3 32.9,54.3 	"/>
</g>
</svg>
