<?xml version="1.0" encoding="utf-8"?>
<!-- Generator: Adobe Illustrator 27.8.1, SVG Export Plug-In . SVG Version: 6.00 Build 0)  -->
<svg version="1.2" baseProfile="tiny" id="Calque_1"
	 xmlns="http://www.w3.org/2000/svg" xmlns:xlink="http://www.w3.org/1999/xlink" x="0px" y="0px" width="116.8px" height="116.8px"
	 viewBox="0 0 116.8 116.8" overflow="visible" xml:space="preserve">
<g>
	<path fill="param(fill)" d="M82.3,85.3v-1.5H34.4L23.9,49H89l-8.2,36L82.3,85.3v-1.5V85.3l1.5,0.3l8.6-37.8c0.1-0.4,0-0.9-0.3-1.3
		c-0.3-0.4-0.7-0.6-1.2-0.6h-69c-0.5,0-0.9,0.2-1.2,0.6s-0.4,0.9-0.2,1.3l11.4,37.8c0.2,0.6,0.8,1.1,1.4,1.1h49
		c0.7,0,1.3-0.5,1.5-1.2L82.3,85.3z"/>
	<path fill="param(fill)" d="M38.6,45.9v-1.7c0-9.9,7.9-17.8,17.8-17.8c4.9,0,9.3,2,12.6,5.2c3.2,3.2,5.2,7.7,5.2,12.6v3.9h3l0-3.9
		c0-11.5-9.4-20.8-20.8-20.8c-5.8,0-11,2.3-14.7,6.1c-3.8,3.8-6.1,9-6.1,14.7v3.2h3L38.6,45.9z"/>
	<path fill="param(fill)" d="M49.5,63.9v1.5c1.5,0,2.8,0.6,3.8,1.6c1,1,1.6,2.3,1.6,3.8c0,1.5-0.6,2.8-1.6,3.8c-1,1-2.3,1.6-3.8,1.6
		c-1.5,0-2.8-0.6-3.8-1.6c-1-1-1.6-2.3-1.6-3.8c0-1.5,0.6-2.8,1.6-3.8c1-1,2.3-1.6,3.8-1.6V63.9v-1.5c-4.6,0-8.4,3.8-8.4,8.4
		c0,4.6,3.8,8.4,8.4,8.4c4.6,0,8.4-3.8,8.4-8.4c0-4.6-3.8-8.4-8.4-8.4V63.9z"/>
	<path fill="param(fill)" d="M65.1,63.9v1.5c1.5,0,2.8,0.6,3.8,1.6c1,1,1.6,2.3,1.6,3.8c0,1.5-0.6,2.8-1.6,3.8c-1,1-2.3,1.6-3.8,1.6
		c-1.5,0-2.8-0.6-3.8-1.6c-1-1-1.6-2.3-1.6-3.8c0-1.5,0.6-2.8,1.6-3.8c1-1,2.3-1.6,3.8-1.6V63.9v-1.5c-4.6,0-8.4,3.8-8.4,8.4
		c0,4.6,3.8,8.4,8.4,8.4c4.6,0,8.4-3.8,8.4-8.4c0-4.6-3.8-8.4-8.4-8.4V63.9z"/>
	<path fill="param(fill)" d="M51.8,61.9c0-1.5,0.6-2.8,1.6-3.8c1-1,2.3-1.6,3.8-1.6c1.5,0,2.8,0.6,3.8,1.6c1,1,1.6,2.3,1.6,3.8v1.5h3
		v-1.5c0-4.6-3.8-8.4-8.4-8.4c-4.6,0-8.4,3.8-8.4,8.4v1.5h3L51.8,61.9L51.8,61.9z"/>
</g>
</svg>
