<?xml version="1.0" encoding="utf-8"?>
<!-- Generator: Adobe Illustrator 27.1.1, SVG Export Plug-In . SVG Version: 6.00 Build 0)  -->
<svg version="1.2" baseProfile="tiny" id="Calque_1"
	 xmlns="http://www.w3.org/2000/svg" xmlns:xlink="http://www.w3.org/1999/xlink" x="0px" y="0px" viewBox="0 0 94.6 88.9"
	 overflow="visible" xml:space="preserve">
<g>
	<path fill="param(fill)" d="M5.2,0.2c0,0-0.5,4.4-0.9,9.5c-0.2,2.5-0.5,5.3-0.6,7.7c-0.2,2.4-0.3,4.6-0.3,6.1c0,1.7,0.3,3.3,0.9,4.7
		c0.8,2.1,2,3.9,3.1,5.6c1.2,1.7,2.3,3.3,3.2,4.8l0.5-0.3l-0.6,0.3l0,0l0.5-0.3l-0.6,0.3l0.2-0.1l-0.2,0.1l0,0l0.2-0.1l-0.2,0.1l0,0
		c0,0.1,0.1,0.4,0.2,0.9c0.1,0.7,0.2,1.6,0.2,2.7c0.1,1.1,0.1,2.4,0.1,3.7c0,5.8-0.4,13.6-0.8,20.2c-0.2,3.3-0.4,6.3-0.6,8.6
		c-0.1,1.1-0.1,2.1-0.2,2.9c0,0.4,0,0.7-0.1,1c0,0.3,0,0.5,0,0.7c0,2.1,0.4,3.9,1.3,5.3c0.6,1.1,1.5,1.9,2.4,2.6
		c1.4,0.9,2.9,1.3,4.3,1.5c1.4,0.2,2.7,0.2,3.8,0.2v-4.7c-0.9,0-1.9,0-2.8-0.1c-0.7-0.1-1.3-0.2-1.8-0.4c-0.4-0.1-0.7-0.3-1-0.5
		c-0.4-0.3-0.7-0.7-1-1.2c-0.3-0.6-0.5-1.4-0.5-2.6c0,0,0-0.2,0-0.4c0-0.9,0.2-2.7,0.3-5.1c0.5-7.1,1.3-19.3,1.3-27.7
		c0-2.1-0.1-4.1-0.2-5.6c-0.1-0.8-0.2-1.5-0.3-2.1c-0.1-0.3-0.1-0.6-0.2-0.9c-0.1-0.3-0.2-0.6-0.4-0.9c-1.5-2.6-3.2-4.7-4.5-6.8
		c-0.6-1-1.2-2-1.5-3c-0.4-1-0.6-2-0.6-3c0-1.3,0.1-3.4,0.3-5.8c0.3-3.6,0.6-7.9,1-11.2c0.2-1.7,0.3-3.1,0.4-4.2
		c0.1-1,0.2-1.6,0.2-1.6L5.2,0.2L5.2,0.2z"/>
	<path fill="param(fill)" d="M26.8,0.7c0,0,0,0.3,0.1,0.8c0.2,1.7,0.6,6.1,1,10.6c0.2,2.3,0.4,4.6,0.5,6.6c0.1,2,0.2,3.8,0.2,4.9
		c0,1.1-0.2,2-0.6,3c-0.5,1.5-1.5,3-2.6,4.6c-1.1,1.6-2.4,3.3-3.5,5.2c-0.2,0.3-0.3,0.7-0.4,1c-0.2,0.6-0.3,1.1-0.4,1.8
		c-0.3,1.9-0.4,4.6-0.4,7.6c0,5.7,0.3,12.8,0.7,18.7c0.2,3,0.3,5.6,0.5,7.7c0.1,1,0.1,1.9,0.2,2.5c0,0.6,0.1,1.1,0.1,1.2h4.7
		c0-0.4,0-0.8-0.1-1.5c-0.1-2.4-0.5-7.1-0.7-12.5c-0.3-5.4-0.5-11.4-0.5-16.2c0-2.2,0.1-4.2,0.2-5.7c0.1-0.7,0.1-1.4,0.2-1.8
		c0-0.2,0.1-0.4,0.1-0.5l0-0.1l0,0l-0.4-0.2l0.4,0.2l0,0l-0.4-0.2l0.4,0.2c1.2-2.1,2.9-4.2,4.4-6.6c0.8-1.2,1.5-2.5,2-3.9
		c0.5-1.4,0.9-3,0.9-4.7c0-1.5-0.1-3.6-0.3-6.1c-0.5-7.3-1.5-17.2-1.5-17.2L26.8,0.7L26.8,0.7z"/>
	<polyline fill="param(fill)" points="12.2,0.4 12.2,26 16.9,26 16.9,0.4 	"/>
	<polyline fill="param(fill)" points="19.5,0.4 19.5,26 24.2,26 24.2,0.4 	"/>
	<path fill="param(fill)" d="M57.3,76.8c0,0,0-1-0.1-2.8c-0.2-6.2-0.5-21.8-0.9-36.4c-0.2-7.3-0.3-14.4-0.4-19.9
		c-0.1-2.7-0.1-5.1-0.1-6.9c0-1.8-0.1-3.1-0.1-3.6c0-1.5-0.3-2.8-0.9-3.8c-0.4-0.8-1-1.4-1.6-1.9c-0.9-0.7-1.8-1-2.6-1.2
		c-0.8-0.2-1.4-0.2-1.7-0.2c-0.1,0-0.2,0-0.2,0l0.1,2.4V0.1c-0.9,0-1.7,0.2-2.5,0.6c-1.4,0.7-2.5,1.8-3.3,3.1
		c-1.5,2.2-2.6,5.1-3.5,8.3c-1.4,4.8-2.3,10.3-2.8,15c-0.3,2.3-0.5,4.5-0.6,6.2c-0.1,1.7-0.2,3-0.2,3.8c0,1.6,0.5,3.1,1.2,4.3
		c1,1.9,2.3,3.5,3.4,4.6c1.1,1.1,2,1.8,2,1.9l1.5-1.8L41.6,46c0,0-0.5,7-1,14.6c-0.2,3.8-0.5,7.8-0.7,11.1c-0.1,1.7-0.2,3.2-0.2,4.4
		c-0.1,1.2-0.1,2.2-0.1,2.9c0,1.7,0.5,3.3,1.3,4.6c0.6,1,1.4,1.7,2.3,2.4c1.3,0.9,2.8,1.5,4.2,1.9c1.5,0.4,2.9,0.5,4.3,0.5v-4.7
		c-0.9,0-1.8-0.1-2.8-0.3c-1.4-0.3-2.6-0.9-3.4-1.6c-0.4-0.4-0.7-0.7-0.9-1.2c-0.2-0.4-0.3-1-0.3-1.6c0-0.5,0-1.5,0.1-2.7
		c0.2-4.2,0.7-11.8,1.1-18.2c0.2-3.2,0.4-6.2,0.6-8.3c0.1-2.1,0.2-3.5,0.2-3.5l0.1-1.2l-1-0.8L44.8,45l0.6-0.7l0,0L44.8,45l0.6-0.7
		c0,0-1.3-1.1-2.6-2.6c-0.6-0.7-1.2-1.6-1.6-2.4c-0.4-0.8-0.6-1.6-0.6-2.2c0-0.5,0-1.4,0.1-2.6c0.3-4.3,1.1-12.2,2.7-18.9
		c0.8-3.3,1.8-6.3,2.9-8.3c0.5-1,1.1-1.7,1.6-2.1c0.2-0.2,0.4-0.3,0.6-0.4c0.2-0.1,0.3-0.1,0.4-0.1h0.1l0.1,0l-0.1-1.4l0,1.4l0,0
		l-0.1-1.4l0,1.4l0,0c0,0,0.3,0,0.5,0.1c0.2,0,0.4,0.1,0.6,0.2c0.3,0.1,0.5,0.3,0.6,0.5C50.8,5.9,51,6.3,51,7.3c0,0.7,0,2.2,0.1,4.5
		c0.3,15.7,1.5,65.2,1.5,65.2L57.3,76.8L57.3,76.8z"/>
</g>
</svg>
